<?xml version="1.0" encoding="UTF-8"?>
<svg xmlns="http://www.w3.org/2000/svg" version="1.1" viewBox="0 0 546.6 503.9">
  <defs>
    <style>
      .cls-1 {
        fill: #d1cec8;
      }
    </style>
  </defs>
  <!-- Generator: Adobe Illustrator 28.6.0, SVG Export Plug-In . SVG Version: 1.2.0 Build 709)  -->
  <g>
    <g id="Layer_1">
      <g>
        <path class="cls-1" d="M46.8,3.8c0,2.7.3,7.1.6,9.8s.6,5.9.6,7c0,1.1,0,4.6,0,7.7-.3,8.3-.3,9.6-.1,18.8,0,5.2,0,10.2,0,13.2-.1,2.7-.3,7-.5,9.7,0,3.9-.6,7.8-1.6,11.7-1.6,7.6-2.4,10.3-4.8,15.2-1.2,2.5-2.2,4.7-2.3,4.8-.2.4-.4.8-.5,1.2-.4,1.4-1.2,2.8-2.1,4-.6.8-1.2,1.7-1.7,2.6-.8,1.3-1.6,2.7-2.5,3.9-2.4,3.7-4.4,7.7-6,11.8-.5,1.4-1.4,4-2,5.9-.4,1.3-.8,2.5-1.3,3.7-.3,1.1-.5,2.2-.6,3.3-.2,2.8-.8,5.5-1.5,8.2-.5,2.4-1,4.9-1.2,7.3-.7,5.4-1.2,7.4-4,13.9-1.9,4.6-2,4.7-6.1,8.9-2,2.1-5.6,4.2-7.2,4.2-.8,0-1.6-.3-2.2-.8v2c0,0,.2,0,.3.1,1.1.5,2.3.5,3.3,0,3.1-.8,4.8-2,8-5.4,3.6-3.9,4.6-5.5,6.7-11.4,1.3-3.2,2.2-6.6,2.6-10,.3-3,.8-6.1,1.5-9,.7-2.9,1.2-5.8,1.5-8.7.1-1.1.4-2.2.8-3.3.4-1,.7-2,.9-3,.9-3.7,5.3-13.8,7.3-16.3.5-.6,1.4-2,2-2.9.6-1,1.4-2.2,1.8-2.8s1-1.4,1.3-1.9c.5-.7,1.8-3.6,5.5-11.7,1.3-2.9,2.1-5.6,3.7-12.4,1.1-4.6,1.7-9.3,1.8-14,0-1.8.2-4.8.3-6.6.2-2.6.1-20.6,0-24.2,0-1.1.3-14.5.4-14.6,0-1.7-.1-3.4-.4-5.1-.6-5.4-.9-9.9-.9-12.6s0-3.6-.2-5.7h-1.4c0,1.2.1,2.5.1,3.8Z"/>
        <path class="cls-1" d="M5.1,16.7c.1,1.9.3,5.2.4,7.4s.2,4.1.3,4.2c.2.3.6,15.5.6,23.4,0,11.5-.3,18.1-1.9,35.3-.1,1.4-.2,4.4-.2,6.7,0,3.3-.2,6.5-1,9.7-.3,3.4-.3,6.9.1,10.3.4,2.1.9,5.4,1.3,8.4.2,2.2.9,4.4,2.1,6.3,1.3,1.9,2.1,2.4,4,2.3.6,0,1.1-.1,1.7-.4.5-.4,1.7-4,2-5.8.2-1.1.5-2.2.8-3.3.2-.7.4-1.4.6-2.1.2-1,.5-2,.8-2.9.4-1.4,1-3.4,1.3-4.5.6-2.6,1.6-5.1,2.9-7.4.3-.4.6-.9.8-1.4.3-.8.7-1.5,1.2-2.2.9-1.7,1.7-3.4,2.4-5.2.8-2.3,1.8-4.5,3-6.6,2-3.8,3.4-7.9,4.4-12.2.1-.9.5-2.8.9-4.2.4-1.9.6-3.8.8-5.7.1-1.7.3-3.7.4-4.5.2-1.1.2-2.1.2-3.2,0-1.1,0-2.1.3-3.2.1-.8.3-3,.4-5,.3-4.2.3-8.3,0-12.5-.1-.9-.3-4.1-.3-7.2,0-8.5-.3-13.9-.7-15.3-.4-2.1-.5-4.2-.5-6.4,0-3.2-.3-6.7-.7-9.3,0-.1,0-.2,0-.3h-1.5c0,.3,0,.6.1.8.2,1.3.5,4.9.6,8,0,3.2.3,6.4.9,9.6.1.7.3,5.3.3,10.4,0,5,.2,9.9.3,10.9.2,1.3.2,2.6.3,3.9,0,3.1-.4,11-.7,12.5-.1.7-.3,2.6-.4,4.1-.6,8-.8,9.8-1.2,11.4-.2,1-.6,2.7-.8,3.9-.7,3.9-3.1,10.5-4.7,12.9-1.3,2.5-2.4,5.1-3.3,7.7-.3.9-.7,1.7-1.1,2.5-.5.8-2.7,4.9-3.7,6.8-1,2.1-1.7,4.3-2.2,6.6-.3,1.3-.7,2.6-1.1,3.9-.4,1-.9,2.7-1.1,3.8-.3,1-.6,2.2-.7,2.6-.2.7-.4,1.5-.5,2.2-.4,2.1-1.3,4.4-1.9,4.6-.8.3-1.5-.1-2.2-1.1-1.4-2.2-2.2-4.9-3-10.9-.2-1.6-.5-3.7-.7-4.7-.4-2.3-.3-9.1.2-10.7.4-1.3.6-3.4.9-10.7.2-6,.5-9.8,1-15.1,1.1-10.6,1.1-34.6.1-50-.1-1.9-.4-7.3-.6-11.8-.2-4.3-.5-10.5-.8-14h-1.6c.2,3.1.4,7,.5,9.1,0,2.3.2,5.8.4,7.7Z"/>
        <path class="cls-1" d="M61.2,21.4c-.2.8-.4,4.2-.5,7.6-.3,5.2-.1,10.3.5,15.5.1,1.5.1,3,0,4.5-.2,5.9-.1,11.8.3,17.8.3,2.5.2,5.1-.2,7.6-.3,1.9-.6,5-.7,7-.1,2-.4,4-.8,5.9-.3,1.3-.7,3.7-.9,5.3-.2,1.6-.5,3.1-1,4.7-.4.9-1.1,3.1-1.5,4.8-1.1,3.6-2.6,7.2-4.3,10.6-.2.3-.7,1.2-1.1,1.9-1.7,2.7-3.6,5.3-5.7,7.8-1.7,2.3-3.1,4.8-4.3,7.4-1.4,3.7-2.4,7.5-3.1,11.3-.5,2.6-.9,5.2-1.2,7.9-.1,1.4-.4,2.8-.7,4.1-.3,1.2-.8,3.1-1,4.2-.2,1.1-.7,2.9-1,4-.3,1.1-.7,2.6-.9,3.4-.5,2.4-4.8,13-7.8,19.2-.6.9-1.2,1.8-2,2.6-.8.9-1.6,1.9-2.3,2.9-.9,1.3-7.3,7.4-9.2,8.6-1.3.8-5.5,3.9-7.9,5.8-1.2,1-2.4,2.1-3.5,3.2v2.1c.6-.6,1.2-1.1,1.8-1.7.8-.8,1.7-1.5,2.6-2.2.7-.5,1.4-1,2-1.6,1.9-1.7,4-3.2,6.2-4.6,1.1-.8,2.2-1.7,3.2-2.6,1.2-1.1,3-2.9,4.1-3.9.9-.8,1.7-1.7,2.4-2.7.6-.9,1.2-1.8,1.9-2.6,1.3-1.6,2.4-3.4,3.3-5.3,1.9-3.9,2.6-5.6,5.7-13.9,1.1-3,1.9-6.1,2.6-9.2.3-1.6,1-4.1,1.3-5.5.4-1.5.7-2.9.9-4.4.5-7.4,3.3-18.3,5.5-21.5.5-.7.9-1.5,1.3-2.2.6-1,1.2-2,1.9-2.9,4.4-5.3,5.6-7.2,8.6-13.8,1.1-2.1,1.9-4.4,2.4-6.7.4-1.5.8-2.9,1.4-4.3.7-1.5.9-2.8,1.3-6.3.2-1.3.4-2.7.7-4,.4-1.9.6-3.8.7-5.7,0-1.9.3-3.7.5-5.5.2-.9.4-2,.5-2.5.2-1.3,0-12.3-.3-14.6-.3-3.4-.3-6.9,0-10.3.2-1.9.2-3-.3-7.9-.3-2.5-.4-4.9-.4-7.4,0-.9.2-3.7.4-6.1s.4-5.2.5-6.1c.2-5,.2-10-.1-15-.1-2.4-.2-4.4-.3-6.1h-1.5c0,2.4.2,4.8.3,6.3.4,8.1.4,13.4,0,15.1Z"/>
        <path class="cls-1" d="M85.5,0c0,.5,0,.9,0,1.4,0,1.7,0,3.3,0,5-.2,1.5-.3,3.1-.3,4.6,0,2.1-.2,4.2-.5,6.2-.2,1.6-.5,4.4-.7,6.2,0,1.4-.2,2.8-.5,4.1-.3,2.3-.3,4.7.1,7,.5,2.1.4,4.4,0,6.5-1,4.5-1.5,9.1-1.6,13.7-.1,2.4-.3,5-.5,5.8s-.4,3.6-.5,6.3c0,2.8-.3,5.7-1,8.4-.4,1.8-1.2,7.7-1.4,10-.4,3.6-1.1,7.2-2.2,10.7-.7,2.6-1.9,7.3-1.9,7.8,0,.2,0,.5-.2.7-.7,1.4-1.2,2.8-1.6,4.3-.3,1.1-.7,2.2-1.3,3.2-.5,1-1,2-1.3,3.1-.4,1.1-.8,2.2-1.4,3.2-.5,1-1.6,2.9-2.3,4.4-.7,1.4-1.8,3.5-2.5,4.5-2.2,3.4-4.1,7-5.7,10.7-.3.8-.9,2.2-1.3,3-.5,1.2-.9,2.5-1,3.8-.5,3.8-1.4,7.5-2.6,11.1-.6,1.6-.9,3.2-1,4.8-.2,1.5-.4,3-.8,4.5-.2.6-.8,2.1-1.1,3.2-.8,2.3-1.9,4.5-3.1,6.6-.6,1.2-1.1,2.4-1.5,3.6-.3,1.1-.7,2.1-1.2,3.2-.2.3-.6,1.3-1,2.1-.4.9-.9,1.8-1.4,2.7-.3.5-.6,1-.8,1.5-.7,2.2-1.7,4.2-2.8,6.2-.6.9-1.1,1.8-1.6,2.7-.7,1.2-1.6,2.4-2.5,3.5-.7.8-1.4,1.7-2.1,2.6-2.4,2.9-5,5.7-7.9,8.1-5,4.3-8.1,6.8-11.3,9.3-1.2.9-2.3,2-3.3,3.1-.9,1-2.7,2.9-4.1,4.2-2.7,2.7-4.7,4.6-6.1,6v2.2c1-1,2.3-2.3,4.1-4,3-2.9,6-5.9,6.8-6.8,3-3.1,6.2-5.9,9.6-8.6,1.8-1.5,4.4-3.7,7.7-6.6,2.1-1.9,4-3.9,5.8-6.1.6-.8,1.2-1.6,1.8-2.3.9-1,1.7-2.2,2.4-3.3.6-1.1,1.4-2.4,1.8-2.9,1.3-2.1,2.3-4.3,3.2-6.6.1-.5.4-1,.7-1.4.8-1.2,1.4-2.5,1.9-3.8.2-.6.4-1.1.7-1.7.5-1.2,1-2.4,1.4-3.6.4-1.3.9-2.5,1.5-3.7.9-1.6,1.7-3.2,2.3-4.9.3-.9.6-1.7.9-2.5.5-1.3.9-2.6,1.2-3.9.1-.9.3-2.6.5-3.7.2-1.3.5-2.5.9-3.7,1.4-3.4,2.8-9.4,2.8-11.7.1-1,.4-1.9.9-2.7.4-.8.8-1.7,1-2.6.8-2.2,1.8-4.4,3.1-6.5.4-.6.7-1.3,1.1-1.9.4-.7.8-1.5,1.3-2.1.5-.7,1.8-3,2.8-5.2s2.1-4.2,2.3-4.5c.6-1.1,1.1-2.2,1.4-3.4.4-1,.8-1.9,1.3-2.8.6-1.1,1-2.3,1.4-3.5.3-1,.6-1.9,1-2.9.4-.8.6-1.7.8-2.6.1-.7.3-1.8.5-2.3.2-1.1.9-3.5,2.1-7.4.3-1.1.6-2.3.8-3.4,0-.7.2-1.5.4-2.2.2-1.1.4-2.3.4-3.4.2-3.3.7-6.6,1.4-9.9.6-1.8.9-5.3,1-10.3,0-1.5,0-3.1.4-4.6.3-1.4.4-2.8.4-4.2.2-6.7.7-11.4,1.6-14.4.6-2.3.6-4.8,0-7.1-.5-2.2-.5-4.5,0-6.6.2-1,.4-2,.4-3,0-1.6.2-3.1.5-4.7.3-1.8.6-5.4.7-8s.3-5.5.4-6.3c.1-1.5.1-3,0-4.5,0-.4,0-.8,0-1.3h-1.5Z"/>
        <path class="cls-1" d="M8.5,494.3c0-1.5-.2-4.2-.4-6-.1-1.8-.2-5.4-.2-7.9,0-4.5-.6-16.4-.8-16.8,0,0-.2-2.4-.2-5.1,0-6.1-.5-12.2-1.4-18.3-.7-2.9-1.6-5.7-2.7-8.5-.2-.5-1.1-2.7-2-5-.3-.7-.5-1.4-.8-2.2v5.1c.2.4.3.8.5,1.2,2.5,6.4,3.4,9.3,3.8,13.6.4,3.5.9,10.7.9,12.5,0,1.3.6,11.4.9,15.3.1,1.6.2,4.7.2,6.8s0,5.5.2,7.5c.1,1.9.3,5.5.5,7.9.1,2.4.3,5,.5,5.7.2,1.2.3,2.4.4,3.7h1.6c-.1-1.5-.3-2.9-.5-4.4-.2-1.4-.4-3.7-.5-5.2Z"/>
        <path class="cls-1" d="M102.6,24.6c-.5,5.8-.6,20,0,22.5.6,2.8.3,18.4-.4,24.1-.2,1.4-.4,4.4-.6,6.6-.2,4.5-.8,8.9-1.8,13.3-.4,1.7-.9,3.4-1,3.7-.1.3-.5,2-.9,3.8-.3,1.8-.9,3.5-1.6,5.2-.5,1-1,2.1-1.1,2.4-.8,2-1.7,3.9-2.8,5.8-.6.9-1.1,1.8-1.5,2.8-.8,1.6-1.7,3.2-2.7,4.8-1.1,1.7-2.2,3.5-2.6,4.1-.3.6-1.2,1.9-1.8,2.9-2.3,4.1-4.4,8.3-6.2,12.7-.3,1-1,2.7-1.5,3.9s-1.2,3.1-1.5,4.2c-1,3.2-2.2,7.5-2.5,8.1-.1.3-.4,1.4-.6,2.5s-.5,2.6-.7,3.4c-.2.8-.6,2.9-.9,4.6-.7,3.5-1.5,7.5-2.2,10.6-.2,1.2-.7,3.4-1,5.1s-.6,3.8-.8,4.8c-.5,2.6-1.1,9.7-1.4,14.7,0,1.5-.2,3.5-.4,4.5-.1,1-.3,3-.4,4.5,0,1.5-.2,3.7-.4,4.8-.8,6.9.5,37.8,1.8,44.8.2,1,.5,2.7.7,3.8.4,2.5,1.1,5.4,2.1,9.4.7,3.3,1.6,6.5,2.8,9.6.6,1.5,1.2,3.2,1.4,3.9s.7,1.8,1,2.6c1.1,2.5,1.4,3.2,1.4,3.6.2.6.4,1.2.7,1.7,1.3,2.5,5.8,12.5,6.3,13.8.2.7.8,2,1.1,3,.3.6.5,1.3.7,2,0,.1.6,1.8,1.4,3.8s1.6,4.3,1.9,5.1c.2.6.4,1.2.7,1.8.3.7.6,1.5.9,2.2,1.4,4.1,3,8.1,4.9,12,.9,1.8,1.5,3.7,2,5.7,0,.5.2,1,.4,1.4.1.3.4,1.4.7,2.4s.7,2.4.9,3.2.6,2.7.9,4.2.6,3.4.7,4c.6,3,1.3,14.2,1,16.5-.2,1.3-.1,4.5.3,12.9.1,2.8.2,38.2,0,44.2,0,1.5.1,6.2.4,12.7,0,2.7.4,5.4.8,8.1.1.3.1.6,0,.9,0,.4,0,.8.1,1.1.3,1.3.6,7.6.6,13.8,0,2.6.2,7.7.3,11.4.2,3.7.3,8.5.4,10.6,0,3.9.3,8.9.4,12.7h1.7c0-.4,0-.8,0-1.2-.1-8.1-.6-21.7-.8-24.7-.1-1.6-.3-6.9-.4-11.7,0-6.4-.2-9.3-.5-10.7-1.1-6.4-1.3-11.7-1.4-41.4,0-14.9-.1-27.5-.2-27.8,0-.4-.2-5.3-.2-11,0-13-.3-15-2.3-24.5-.2-.8-.5-2.1-.7-2.7s-.7-2.3-1-3.7c-.7-2.9-1.7-5.7-3-8.4-1.7-3.4-4-9.3-6.9-17.3-1.5-4.1-2.6-7-3.2-8.7-.3-.8-1-2.5-1.4-3.8-.4-1.1-.9-2.2-1.4-3.2-2.8-5.6-5.3-11.3-7.5-17.1-.4-1-1.1-3-1.7-4.6-1.2-3.4-2.2-6.9-3-10.5-.4-1.8-.9-4.1-1.2-5.2-.3-1.1-.6-3-.8-4.2-.2-1.2-.4-2.9-.6-3.7-.2-1.2-.4-4.1-.8-9.1-.5-7.3-1.2-26.1-1-29.1,0-1.3.3-5,.5-8.1s.4-6.1.5-6.6c.1-.8.8-10.7.9-12.3,0-1.7,2.1-14.3,3.1-18.8.3-1.5,1-4.8,1.5-7.3,1.9-9.3,2.2-10.3,3.3-13.7.6-1.9,1.4-4.3,1.7-5.4.3-1.1,1.1-3.1,1.6-4.5.4-.9.8-1.8,1.1-2.8,0-1.1,4.1-9.9,6-12.8,3.6-5.4,6.1-9.5,7.1-11.6.6-1.2,1.4-2.8,1.8-3.4,1.4-2.6,2.7-5.3,3.8-8,.6-1.3,1-2.7,1.4-4.1.8-3.1,1.7-6.7,1.9-7.4.1-.4.4-1.2.5-1.9.8-3.3,1.3-6.7,1.5-10.1,0-3.2.3-6.4.7-9.6.6-4.4.9-20.6.5-23.4-.5-3.3-.6-16-.2-22.3.5-7.9.6-18.1.1-25.6h-1.8c.2,4.8.5,12.2.5,16.1,0,2.3-.2,6.1-.4,8.5Z"/>
        <path class="cls-1" d="M121.3,487.5c-.3-21.5-.4-24.5-.9-31.9-.3-3.5-.5-7.8-.5-9.6s-.2-5.3-.3-7.7-.4-5.6-.5-7c-.2-5.3-.6-12.1-.8-14.9-.2-2.9-.5-9.3-.9-18.2-.1-2.7-.1-8.6,0-13.1s.1-11.3.2-15.2c0-13.5,1.2-21.9,4.2-30.6.8-2.4,1.8-5.3,2.2-6.4.4-1.1.9-2.9,1.2-3.9s1-3.3,1.7-5c.6-1.7,1.8-4.8,2.5-6.9,1.4-4.2,1.6-4.6,5.4-12.6,1.5-3.1,2.8-5.8,2.8-5.8s.5-1.2,1.2-2.7c1.2-2.7,3.8-9.2,4.5-11.4.4-1.3,1-2.6,1.8-3.7.5-.8.8-1.6,1.2-2.5.4-1.1.9-2.4,1.2-2.9,1.6-3.9,2.8-8,3.4-12.2.4-2.6.7-4.5,1-6.5.6-3.7,1-7.4,1.1-11.2.1-2.7.3-5.4.4-6,.9-4.8,1.8-20.2,1.5-27.8,0-2.1,0-4.3,0-6.4.3-2.4.2-4.3-.4-10.7-.8-8.2-1-9.1-2.9-13.9-.5-1.4-1.5-4.2-2.2-6.4-1.2-4.1-2.7-8.1-4.5-12-.6-1.4-1.3-2.9-1.5-3.5-.5-1.2-1-2.3-1.6-3.4-.7-1.3-1.8-3.4-2.5-4.7-.5-.8-.9-1.7-1.2-2.5-.3-.8-.7-1.6-1.2-2.4-.7-1.2-1.7-3.3-2.3-4.7s-1.6-3.4-2.1-4.4-1.1-2.5-1.4-3.2c-.2-.6-.5-1.1-.8-1.6-.8-1-2.5-5.2-3.6-9.1-.4-1.3-1.3-4.3-2.1-6.7-2.4-7.5-3.3-11.6-3.6-15.5,0-1-.3-2.7-.5-3.8-.8-5.4-1.3-10.9-1.5-16.4-.3-8.5,0-60.5.4-67.9.1-2.1.2-5.7.1-7.9,0-1.6,0-3.2,0-4.9h-1.8c0,7.2,0,13.9-.1,18.3-.5,15.2-.6,50.5-.3,59.1.4,9.2.6,13.2.8,14.3.1.6.4,2.3.5,3.7.5,4.4.9,8.1,1.1,9.6,1.1,5.3,2.6,10.5,4.3,15.6.2.5.6,2,1,3.3.8,2.7,1.8,5.3,3,7.8.5,1,1.7,3.6,2.6,5.7,1.7,3.8,8.6,17.7,9,18.2,1.3,2.4,2.5,4.8,3.5,7.3,2,4.7,3.8,9.5,5.2,14.4.5,1.6,1.1,3.4,1.4,4.1,1.4,3.1,2.2,6.4,2.5,9.7.5,5.1.9,9.5.9,10,0,.3,0,5.9-.1,12.5-.1,14.6-.4,20.2-1.3,25-.3,1.8-.5,3.6-.4,5.4,0,1.7,0,3.9-.2,4.8-.1,1-.3,3-.5,4.6s-.5,4.2-.8,5.8c-.3,1.6-.8,4.5-1.2,6.4-.3,2-.8,3.9-1.4,5.8-1.2,3.4-2.6,6.7-4.2,9.9-.5,1.1-1,2.2-1.4,3.3-1.7,4.7-2.9,7.5-4.3,10.7-.7,1.7-1.5,3.5-1.8,4.1-.3.7-.6,1.3-.9,1.9-.3.5-1,1.8-1.5,3-.5,1.1-1.7,3.6-2.5,5.4-.9,1.8-1.8,4.1-2.2,5.1s-1.1,3.1-1.6,4.7-1.6,4.7-2.3,6.8c-.7,2.1-1.7,5-2.1,6.4-3.8,11.2-4.1,12.2-5,17.4-1.1,6-1.2,7.9-1.3,18,0,5.4-.2,11.4-.3,13.3-.1,2.3-.2,6.3,0,11.2.4,12.3.4,13.4,1.3,26.8,0,.9.2,2.9.2,4.4.1,2.6.2,4.4.8,14,.1,2.2.3,6.9.5,10.4.1,3.5.3,7.5.4,9,.5,5.4.9,20.6.8,29.6,0,5.9.2,13.4.5,17.3h1.7c0-1.8-.2-8.6-.3-16.4Z"/>
        <path class="cls-1" d="M133.4,18c.1-3.9.4-10,.6-13.6,0-1.5.1-3,.2-4.5h-1.6c0,2.2-.1,4.1-.2,5.4-.2,3.7-.5,9.5-.6,12.9-.3,6.9-.6,13.9-.9,18.3-.7,12.5-.7,24.9,0,37.4.1,2.2.3,6.1.5,8.7.4,7.7.9,10.7,3.4,19.4.6,2.1,1.2,4.3,1.4,5,1.3,3.2,2.8,6.4,4.5,9.4.7,1.3,1.5,3.2,2,4.2.4,1,.9,2,1.5,2.9.7,1.2,1.2,2.5,1.6,3.9,1.7,5.5,3.1,8.6,4.4,10.1,1.6,1.6,3.5,2.9,5.7,3.8,1.5.7,2,.8,2.8.6,1.8-.3,2.1-1.1,2.5-7,.3-4.2.4-8.3,0-12.5-.3-1.6-.2-32.4,0-41.5,0-2.8.1-10.6,0-17.3,0-15.4,0-22.7.3-32.6.3-10.4.4-18.3.2-22.7,0-2.8,0-5.6.3-8.4h-1.8c-.2,1.6-.3,6.1-.3,16.1,0,8.2-.1,16.6-.2,18.6-.2,4.9-.4,14.1-.4,14.5.2,2.9.2,29.3,0,33.2-.1,2.9-.2,7.5-.2,10.3,0,8.7.2,31.6.3,35,0,4-.4,10.8-.7,11.7-.2.5-.4.6-.8.6-1.3-.2-2.5-.7-3.5-1.4-.3-.2-1.1-.8-1.8-1.3-1.5-1-1.7-1.2-2.8-3.8-.9-2-1.7-4.2-2.2-6.4-.3-1.4-.8-2.8-1.5-4-.5-.8-1.5-2.7-2.2-4.1-1.4-2.9-2.3-4.7-4.4-8.8-1.6-3.2-2-4.4-3.9-11.4-1.5-5.3-2.3-10.8-2.5-16.3-.1-2.4-.3-5.8-.4-7.7-.6-8.7-.7-11.3-.7-20.4,0-5.4.1-11.4.2-13.4.6-10.2.9-16.6,1.2-23Z"/>
        <path class="cls-1" d="M142,0c0,2.1,0,3.7,0,3.9,0,.3,0,4.1.2,8.6s.2,10.1.2,12.4c.1,4.5.4,23,.4,26.1,0,1,0,5.1-.2,9.2-.2,7.2-.2,7.5.3,9.3.9,3.2,1.6,4.2,3.3,4.5.6,0,1.2,0,1.8-.3,1.6-.6,2-1.9,2.6-7.6.2-2.5.5-5.9.5-7.5,0-3.1-.3-9.5-.8-13.1-.2-3.5-.2-6.9,0-10.4.3-12.5.3-13.4.5-15.6.3-4,.6-11.3.8-17.7,0-.6,0-1.2,0-1.9h-1.6c0,3.5-.3,7.8-1,19.1-.7,9.9-.7,19.9,0,29.9.7,6.8.5,13.6-.6,20.4-.4,2.2-.7,2.8-1.5,3-.9.2-1.7-.8-2.3-3.3-.5-2.1-.5-2.3-.4-7.6,0-3,.1-8.7,0-12.6-.2-14-.3-20.2-.4-24.8-.2-6.3-.2-15.5-.1-24.1h-1.8Z"/>
        <path class="cls-1" d="M170.4,0c-.2,5.9-.1,11.8.2,17.7.5,12.3.6,18.3.5,30.7,0,11.8-.3,24.3-.5,26.1-.1,1.3-.1,4.3,0,6.7.4,7.9.2,15.8-.4,23.7-.3,2.7-.6,7.7-.8,11.1-.1,3.4-.3,7.7-.4,9.5s-.2,4.5-.1,5.9c.7,19.9,1,27.2,1.3,27.8.1.5.2,1,.3,1.5,0,.7.3,2,.5,3,.2.9.3,1.9.4,2.8,0,.8,0,1.7.2,2.5.1.8.4,3.1.7,5.2.4,3.4,1.2,8.1,2.2,13.8.6,3.5.5,12.2-.3,16.8-.1.7-.4,3.1-.6,5.4-.2,2.3-.5,5.1-.6,6.3-.4,3.9-.6,7.8-.6,11.7,0,1.7,0,3.4-.3,5-.3,2.1-.5,4.8-.6,6-.2,6.4.2,12.9,1.1,19.2.1.8.3,4.2.4,7.7.1,5.9.2,7.5.8,9.8.1.5.6,2.9,1,5.2s1,4.8,1.2,5.5c1,4.1,1.7,8.2,2,12.4.2,2.5.7,5.8,1.4,9.2.1.6.4,2.4.6,4,.2,1.3.4,2.6.7,3.9.2.6.6,3,.9,5.4.7,5.1,1.1,7.3,1.5,8,.5,1,.9,3.6,1.2,7.2.3,4.7.3,15.9,0,21.8-.3,6.1-.4,12.6-.2,18.2,0,2.4.2,6,.3,8,0,2,.2,4.7.2,6,.1,3.3.3,6.6.5,8.1,0,.7.3,3.5.6,6.1.5,5.2.8,10.8,1.2,22.2.3,10.2.3,10.3.9,17,.3,3.3.5,8.2.5,11,0,7.1-.5,28.8-.9,33.5-.2,2.2-.4,6.2-.5,9,0,1.9-.1,4.3-.2,6.2h1.7c0-.7,0-1.4.1-2,.2-2.8.4-6.5.4-8.1s.2-4.4.4-6c.2-1.9.4-5.4.4-9.9,0-3.8.1-8.1.2-9.4.2-3.3.2-16.1,0-20.2-.1-1.8-.4-5.6-.5-8.4s-.5-9.1-.7-14c-.3-9-.7-15.3-1.4-22.9-.7-7.7-.8-10-1.2-20.5-.4-11.1-.3-21.4.2-26.1.2-1.6.2-5.7.1-12.4-.1-10.7-.3-12.4-1.5-15.5-.5-1.8-.9-3.6-1.1-5.4-.3-2.3-.9-5.8-1.4-7.9s-.8-4-.8-4.3-.3-1.9-.6-3.5c-.3-1.6-.7-4.4-.9-6.2-.4-4.7-1.1-9.4-2.1-14-.2-.8-.5-2.4-.7-3.5-.2-1.1-.7-3.5-1.2-5.3-.8-3.2-.8-3.6-1-9.6-.2-5.7-.6-10.5-1.2-15-.7-5.8-.9-13.7-.4-16.8.6-3.2.8-6.3.8-9.5,0-1.7,0-4.4.2-6.1.9-10.7,1.5-16,1.8-18.1.3-2.8.5-5.6.4-8.4,0-5.7,0-6.2-.6-9.3-.4-1.8-.8-4.3-1-5.5-1-6.6-1.7-12.4-1.9-14.3-.1-1.2-.4-3.6-.7-5.4-.6-4.1-1-8.3-1.1-12.5-.5-13.7-.5-19.1-.3-23.7.1-2.8.3-7.5.4-10.4s.4-7.4.7-9.9c.5-4,.6-8.1.4-12.2-.1-11.7-.1-17.3.1-28.7.1-5.8.2-11.2.2-12.2,0-19.8,0-23.4-.3-30-.4-11.6-.5-15.6-.3-20.6h-1.7Z"/>
        <path class="cls-1" d="M189.6,37.5c-.3,5.9-.4,8.7-.7,16.2-.1,3.5-.3,7.2-.3,8.3,0,1-.2,4.8-.2,8.4-.1,7.5-.5,16.7-.8,21.1-.1,1.7-.3,4.8-.4,6.8-1.3,22-1.4,26.2-1.1,38,0,3.8.2,9,.2,11.7,0,8.4.8,13.2,3.5,25.4.7,2.5,1,5,1.2,7.6,0,1.6.3,5.4.5,8.6.3,4,.4,7.9,0,11.9-.2,3.4-.4,8.5-.5,11.3-.1,2.9-.3,6.6-.5,8.3-.7,6.6-.7,19.5,0,25,.1.9.3,2.5.5,3.4.4,2.3.9,4.7,1.5,6.9.2.6.3,1.2.3,1.8.1,1.1.3,2.2.6,3.3.3,1.5.8,3.7,1,4.9.3,1.2.7,3.4,1,4.7.9,4.3,2,10.6,2.2,12.9.4,4.2,1,8.4,1.8,12.6.2,1,.4,2.4.5,3.2s.2,1.9.3,2.6c.6,3.5.8,6.4,1.2,15,.3,8.3.7,14.9,1,17.3.1,1.2.3,5.7.4,10,.1,7.3,0,8.1-.4,10.6-.3,1.5-.6,3.9-.7,5.4-.1,1.5-.3,3.4-.5,4.2-.3,1.9-.7,10.4-.7,15.9,0,2.2-.1,5.6-.2,7.6-.3,4.5-.5,18.1-.5,23.5,0,5.3.5,18.6.6,20.3,0,.7.2,4.8.4,9.1.1,4.3.3,8.9.4,10.2.1,1.3.2,5.6.2,9.7s.1,8.1.2,9.1c.1,1,.2,7.9.3,15.3,0,9.5,0,14.9.1,18.3h1.8c0-3.7-.1-8.5-.2-15.3,0-9.6-.2-17.5-.2-17.7,0-.1-.2-4.6-.3-10-.2-9.1-.4-14.6-.9-25.4-.1-2.5-.3-6.1-.4-8,0-1.9-.2-4.5-.2-5.9-.2-4-.1-17.9.1-25.7.1-4,.3-10.6.5-14.9.3-10.4.6-14.5,1.1-19,.4-3.6,1.2-8.9,1.3-9.4.2-.7-.1-14.3-.3-16.7-.1-1.6-.3-4.7-.5-7s-.3-6-.5-8.3-.4-6.5-.5-9.4c-.1-2.9-.3-6-.5-6.8s-.4-2.7-.6-4.1-.5-3.6-.8-4.8c-.6-2.8-1-5.6-1.3-8.5-.5-4.3-1.2-9.4-1.8-12-.3-1.2-.7-3.6-1-5.2-.3-1.6-.8-3.9-1-5-.6-2.6-1.1-5.4-1.3-7.2,0-.6-.2-1.3-.5-1.9-.3-.6-.4-1.2-.5-1.8-1.6-9.1-1.7-9.9-1.9-15.8-.2-6.2,0-12.5.7-18.6.3-2.4.5-6.2.6-8.4,0-2.2.2-6.9.3-10.4.2-2.9.2-5.8,0-8.7-.1-1.3-.2-3.3-.2-4.4,0-1.8-.6-10.3-.8-11.4,0-.3-.5-2.3-1-4.5-2.5-10.9-3-14.9-3.3-28.7-.5-19.4-.3-28.7,1.2-50.1.3-4.8.7-12.2.8-18,.3-13,.4-16.7.7-23.4.2-4,.4-8.9.6-11,.6-9.2.8-39,.3-39.8,0,0,0-.3,0-.6h-1.6c0,1.4.2,2.6.3,3.4.4,4,.1,22.9-.5,34.1Z"/>
        <path class="cls-1" d="M204,72.4c.3-4,.7-10.9.8-17.3,0-3.1.2-6.8.4-8.1.5-5.1.6-7.2,1-14.6.2-4.2.5-8.9.6-10.5s.3-5,.5-7.7c.1-2.7.3-6.5.5-8.6,0-1.4.2-3.6.3-5.5h-1.7c0,1.3-.2,2.8-.3,4.6-.5,8.5-.7,12.9-1,18.2-.2,3-.4,6.7-.5,8.4-.2,4.7-.6,10.3-.9,13.5-.2,1.6-.4,6.3-.6,10.5-.3,9.3-.6,15.8-1.1,19.8-.7,6.5-.9,15.1-.7,34.6,0,10.4.2,26.3.2,35.3,0,15.7.1,18.9.8,24.1.1.9.4,3.5.6,5.8.2,2,.4,4,.8,5.9.2,1,.7,3,.9,4.5.6,3.2,1.4,6.4,2.5,9.4,1.4,3.6,3.4,6.1,8.7,11.2,6.5,6.2,9.1,9.2,10.7,12.2,1.4,2.7,2.6,7.7,3,13.1.3,3.5.5,5.2.9,8.9.1,1,.5,4.2.8,7.1s.7,6,.8,6.8.4,3.2.7,5.3c.4,3.6,1.2,7.2,2.3,10.8.3.7,1.3,2.8,2.3,4.6,2.1,3.8,4.4,6.6,6.6,8,1.9,1,3.9,1.7,6.1,2,.7.1,2,.4,2.9.7,1,.4,2,.4,3,.1,2.5-.6,4.2-2.9,6.7-9.1.5-1.2.9-2.5,1.1-3.7,0-.6.2-1.1.4-1.7.8-2.7,1.3-5.4,1.5-8.2.1-1.6.3-3.8.5-5,.4-3.5.7-11.9.7-20.8,0-4.8.2-9.9.4-12.2.2-2.1.3-4.5.4-5.2,0-.7.2-4.5.4-8.4s.5-9.4.6-12.2c.1-2.8.2-6.1.1-7.3-.6-14.6-.7-18-.5-19.9.1-1.3.2-5,0-9.4-.2-11.9-.2-13.4,0-18.6,0-2.7.2-7.8.3-11.2s.2-7.3.3-8.6c.1-2.2,0-2.6-.8-6.4-.5-1.8-.8-3.6-.9-5.4.2-2.4,0-4.8-.5-7.1-.5-1.9-.6-3.3-1.1-13.1-.1-2.2-.3-4.5-.4-5.2-.2-1.6-.6-7.3-.7-9.8-.2-3.7-.1-15.4.1-17.7.3-2.5.8-9,1.2-13.5.4-5.4.7-8.3,1.2-11.8.5-3.2.5-3.7.2-10.1-.1-3.7-.4-7.3-.5-7.9-.2-1.3-.2-2.7-.2-4,0-1.6-.2-4.5-.4-6.5-.1-1.7-.2-3.5-.3-5.2h-1.7c0,1.3.1,2.5.2,3.7.2,2.6.4,6.2.4,8,0,1.8.2,4.6.4,6.1.6,5,.7,10,.3,15-.5,3.3-.8,6.6-1.1,11-.1,1.9-.3,4.2-.4,5.1-.1.8-.3,2.9-.5,4.6s-.4,4.5-.6,6.3c-.5,5.1-.2,21.8.6,27,.1.9.3,2.8.3,4.2.2,6.1,1.1,15.7,1.7,17.2.2,1.1.3,2.2.1,3.3-.2,2.7-.2,2.4,1.3,9,.4,1.8.4,2.3.2,5.4-.5,6.5-.7,22.1-.5,37.8,0,4.5,0,8.3,0,8.4s0,4.5.2,9.7c.4,11.5.4,16.1-.6,31.7-.1,1.6-.2,3.2-.1,4.8,0,1.1,0,2.2-.2,3.3-.2,1.5-.4,4.1-.5,5.9-.2,4.2-.5,21.4-.4,23.3,0,.8-.1,3-.3,5-.2,1.9-.4,4.5-.5,5.8-.1,1.7-.4,3.3-.7,5-1.3,5.9-1.8,7.6-2.3,8.8-.5,1.4-1.2,2.8-2,4.1-.4.6-.7,1.2-1,1.8-.5,1.1-1.4,2-2.6,2.2-.6.2-1.2.1-2.9-.3-.9-.2-1.7-.4-2.6-.5-1.8-.3-3.5-1-5.1-2-2.3-1.7-4.1-3.9-5.4-6.5-2.2-3.9-2.4-4.4-3.1-6.8-1-3.7-1.6-6.9-2.4-13.9-.2-1.7-.4-3.6-.5-4.2-.1-.6-.4-2.8-.6-4.7s-.6-5.2-.8-7.3-.5-4.7-.6-5.9c-.2-3.1-.6-6.3-1.4-9.3-.6-3-2-5.9-3.8-8.3-1.7-2.2-3.6-4.3-5.7-6.3-2.6-2.3-5.1-4.7-7.4-7.3-2.9-3.3-4.9-7.3-5.7-11.6-.5-2-.6-2.7-1.3-6.7-.2-1.2-.4-2.4-.6-2.8-.5-2.7-.8-5.3-.9-8-.1-1.3-.3-3-.4-3.9-.6-4.6-.8-9.2-.7-13.8,0-9.6,0-25.1-.2-33.9-.2-9.7,0-36.8.4-41.2.1-1.7.3-4.3.5-5.8Z"/>
        <path class="cls-1" d="M219.8,68.9c.4-5.7,1-11.8,1.5-16.2.7-5.8,1.5-15.4,1.9-24.3.1-2.6.3-6.3.5-8.3.1-1.9.3-5.7.5-8.4.2-3.9.5-8.4.7-11.8h-1.7c-.2,2.6-.4,5.9-.7,11.1-.1,2.3-.3,5.8-.5,7.9-.1,2.1-.3,6-.5,8.7-.3,6.5-.7,11.8-.9,14.3-.1,1.1-.3,3.3-.5,5-.1,1.6-.4,4.3-.6,5.9-.7,5.5-.8,7-1,10.1-.1,1.8-.4,5.5-.7,8.4-.9,9.7-1,14.3-1,32.1,0,18.4.3,30.7.8,38.3.2,2.5.5,6.4.6,8.5.1,2.1.4,4.9.6,6,.2,1.2.5,3.3.7,4.7.2,1.4.5,2.8.8,4.1.3.8.7,2.4,1,3.5,1.1,3.6,4.3,11.1,5.6,12.9.5.6,1.1,1.5,1.3,1.9.5.8,4.8,6.2,5.8,7.3.7.8,1.3,1.6,1.8,2.5.6,1,1.5,2.3,2,2.9,1.6,2.5,3,5.1,4.2,7.8.4,1,.9,3,1.3,4.3.3,1.4.8,3.2,1,4,.9,3.5,1.6,7.1,2,10.7,0,.9.3,5.7.5,10.6.4,9.9.6,11.4,2.1,14.6.9,1.9,1.7,2.8,3.1,3.3,1.3.5,2,.5,2.6,0,.9-.7,2.6-6.2,3.1-10,.2-1.2.3-2.4.2-3.5-.4-3.6-.5-7.3-.4-11,.3-2.8.4-11.1.2-25,0-6.1-.2-7.8-.5-9s-.4-2.8-.5-8.3c0-3.8-.2-7-.2-7.1-.1-.2-.3-4-.8-16.7-.1-4.9-.6-9.7-1.5-14.5-.2-.9-.4-3.1-.6-4.9-.1-1.8-.3-3.4-.3-3.5s-.3-1.8-.5-3.9c-.2-2.1-.5-4.3-.6-5-.2-1-.2-2-.2-3,0-.9-.1-2.9-.3-4.4s-.3-4.1-.3-5.9c0-1.1,0-2.3-.1-3.4-.1-1.1-.2-2.2-.1-3.3,0-1.7-.1-3.6-.2-4.2,0-1.4,0-2.8.2-4.1.2-1.8.4-8.4.5-16.5.1-7.4.3-14.3.5-15.2.1-1,.3-5.5.5-10s.3-9.3.5-10.6c.3-2.7.1-15.8-.2-21.1-.4-5.8-.6-18.6-.3-22.4,0-1.2.2-2.9.2-4.7h-1.6c-.6,15.5-.6,15.9.1,27.9.4,7.5.4,15.1,0,22.6-.1,1.7-.2,5.1-.3,7.6,0,2.5-.2,6.1-.3,8-.5,5.5-.6,8-.7,19.4,0,5.9-.2,11.9-.4,13.4-.2,3.2-.2,6.4,0,9.5.2,3.8.3,8,.3,9.3s.2,3.3.3,4.4c.2,1.2.2,2.5.3,3.7,0,1.2.1,2.4.3,3.7.3,2,.6,4.1,1.1,10,.1,1.7.5,4.3.7,5.8,1,5.5,1.5,11.1,1.5,16.7,0,1.4,0,2.9.3,4.3,0,.1.2,2.6.3,5.5.1,2.9.3,6,.3,7,0,1,.2,4.3.2,7.5,0,4.7.2,5.9.5,7,.4,1.2.5,3.7.3,7.3,0,.8,0,3.2.1,5.2.2,4.8.2,15-.1,19.7-.2,4,0,7.9.3,11.9,0,1.9-.2,3.8-.5,5.7,0,.3-.3,1.1-.5,1.7-.4,1.7-1,3.4-1.7,5.1-.4.6-1.4.3-2.3-.7-1.2-1.8-2-3.9-2.3-6,0-.6-.2-2.4-.2-4.1,0-4.6-.6-16.1-.7-17.6-.5-5.2-4.3-19.5-5.6-21-.5-.7-.9-1.4-1.3-2.2-.5-.9-1-1.8-1.6-2.7-.4-.5-1.2-1.7-1.9-2.7s-2-2.7-3-3.9c-4.8-5.7-6.9-9-8.9-13.6-2.3-5.1-3.9-10.6-4.8-16.1-.2-1.7-.6-3.8-.7-4.6-.4-2.9-.6-5.9-.7-8.8,0-1-.1-2.8-.2-4-.7-6.4-.9-17.8-.9-39.8,0-13.9.2-23.7.7-28,.1-1.2.3-3.5.4-5.1Z"/>
        <path class="cls-1" d="M276.8,21.5c0,10.3,0,11.6.4,16.1.7,6.1,1.1,12.3,1,18.5,0,2.8.2,5.7.7,8.5.3,2,.5,7.9.9,20.4.2,6.9.5,11.7,1.2,18.1.6,5.7.7,7.4.8,11.9,0,2.7.2,6.6.4,8.9.1,2.2.2,5.9.1,8.1,0,2.3-.2,8.3-.2,13.4s-.2,9.8-.2,10.3c-.3,1.9-1.1,10.2-1.5,16.2-.3,3.5-1.2,11.4-1.8,14.6-.4,2.4-.7,6.3-1,14.2-.1,2.8-.3,5.4-.4,5.9s-.2,5.8-.2,12c0,6.1-.1,11.2-.2,11.3s-.2,1.8-.3,3.7c0,1.9-.3,5.1-.5,7-.5,4.9-.8,9.2-1.1,15.8-.1,3.2-.4,6.7-.5,7.8-.2,1.9-.4,2.8-1.3,7.3-.9,4.4-1.6,8.8-2,13.3-.4,4.8-1.4,9.5-2.7,14.1-1.2,3.7-1.4,4.3-2.4,7.8-.5,1.8-1.2,3.8-1.5,4.6-.2.6-.4,1.1-.5,1.7-.2.6-.4,1.2-.6,1.7-1,2.3-3.3,9.3-3.9,11.7-1.3,5.1-2.3,10.3-3,15.5-.2,1.4-.5,3.4-.7,4.5-.9,4.6-1.4,9.3-1.8,14-.1,1.9-.6,5.9-.9,9s-.8,7-1,8.9c-.2,1.8-.4,3.9-.6,4.7-.8,4.9-.9,6.3-1.2,9-.3,3.8-.3,7.6,0,11.4.2,2.3.4,7.7.6,16.6.3,15,.4,18.5.6,24,.1,3.3.3,9.3.4,13.3s.3,7.8.3,8.4c0,.6.2,3.6.4,6.6s.3,6.8.5,8.4.3,4.7.5,7,.3,4.6.4,5.1c.2,1.6.5,7.5.7,11.2h1.7c-.2-5.2-.8-14.2-1-15.3,0-.4-.2-1.8-.2-3.1,0-1.3-.3-4.9-.5-7.9-.4-6.3-.7-14-.9-21.5,0-2.8-.2-7.8-.4-11.1-.3-8.1-.6-19.5-.8-28.3,0-3.9-.2-8.6-.4-10.4s-.2-5.9-.2-9.1c-.1-3.9.2-7.7.8-11.6.4-3.1.9-6.9,1.1-8.4s.5-4.1.7-5.8.6-4.8.8-7c.9-9.7,1.5-14.2,2-16.9.2-1.2.6-3.2.7-4.6.9-7.1,2.4-14.1,4.5-20.9.6-1.7,1-3.2,1-3.4.2-.8.6-1.6.9-2.4.5-1.2,1.1-2.8,1.4-3.7.8-2.6,1.7-5.1,2.8-7.6.4-.9.7-1.9.9-2.8.2-1.1.4-2.1.7-3.2,1-4,1.8-8.1,2.4-12.3.6-5.4.8-6.3,1.2-9.3.2-1.5.5-2.9.8-4.3.6-2.6,1.1-5.3,1.4-7.9.2-1.2.4-4.3.6-6.7.3-5.9.6-11.1.9-14.6.6-6.9,1-15,1.1-22.2.1-10.7.2-14.1.5-18,.1-1.9.4-6.2.6-9.6s.4-6.2.5-6.3c.1-.7.3-1.4.3-2.1.1-1.1.4-3.7.7-5.8.6-4.3.8-6.6,1.2-11.3.1-1.8.4-5.4.7-8,.6-6,.9-12.1.8-18.2,0-3.6,0-7.2,0-8,.3-3.8-.6-24.4-1.5-34.2-.3-3.6-.8-11.9-.9-16.8-.2-7.1-.7-17-1.1-20.6-.3-2.2-.4-4.4-.4-6.6,0-1.4,0-3,0-3.7,0-1.5-.4-8-.7-10.3-.1-1-.3-2.7-.5-3.9-.1-1.2-.4-3.1-.5-4.3-.2-2.2-.2-4.3,0-6.5,0-2.4.2-6.9.1-10.2s0-7,.2-8.3c.2-3,.4-6,.5-9.1h-1.7c0,2-.1,4.1-.2,6.1-.1,2.3-.3,9.2-.4,15.4Z"/>
        <path class="cls-1" d="M298.7,5.8c-.2,10.7-.4,16.6-.6,21.6-.5,10.7-.2,32.6.4,34.9,0,.2.2,1.5.3,2.8.3,2.7.7,7.3,1.3,12.7.2,1.9.5,4.1.6,5,.1,1.3.2,2.6.2,3.8,0,3.6.7,13.8,1.2,17.9.4,3.5.7,7.2,1.2,17.2.2,4,.8,12.2,1.1,13.6,0,.5.2,2,.3,3.3.2,2.1.9,7.5,1.3,9.4,0,.6.1,1.2.1,1.8,0,1.1.8,9,1,10.4.4,2.6.9,11.8,1,21.2.1,6.1.3,12.6.5,14.5.1,1.9.3,5.3.4,7.6,0,2.7.4,5.4,1.1,8,.3,1.2.4,2.4.4,3.6,0,.9,0,1.8.3,2.6.3.5.5,1.1.6,1.6.4,1.4.5,2.1,1.5,8.8.4,3.4,1,6.7,1.9,10,.2.7.4,1.5.5,2.2,0,.5.2,1.1.4,1.6.2.6.7,2,1,3.1s1.2,3.4,1.9,5.1,1.5,3.6,1.8,4.2c.3.6.8,1.8,1.2,2.5.5.9.9,1.9,1.2,2.9.3.9.8,2.2,1.1,2.9s1,2.5,1.6,3.9,1.3,3.2,1.7,3.9c1.1,2.2,3.5,7.3,4.7,10.3.6,1.6,1.2,2.9,1.3,3.1.6,1.2,1,2.5,1.2,3.8,0,.4.2,1.9.5,3.5.4,1.7.5,3.4.1,5.1,0,1.1-.4,2.2-.9,3.2-.3.4-.5.8-.6,1.3-.3,1.6-.7,3.2-1.2,4.7-.9,2.7-1.1,6.1-.7,12.9.1,2.6.3,6.1.4,7.8s.3,4.7.4,6.8.4,5.1.5,6.5.2,3,.2,3.5.2,6.3.2,12.9c.1,12,.3,15.3.9,22.9.2,2.3.5,6.9.6,10.4.5,12.3.7,16.2,1.2,21.7.4,4,.5,7.9.3,11.9,0,6-.7,11.9-2.1,17.7-.6,2.5-1.2,5-1.3,5.7s-.7,2.6-1.2,4.2c-.5,1.4-.8,2.8-1.1,4.2,0,.6-.2,1.3-.4,1.9-.6,2.5-1,5-1.3,7.6-.3,5.6-.4,12.3-.1,16.3.1,2.5.4,8.2.6,12.7.1,3.5.4,7.8.5,10.9h1.7c-.2-2.9-.4-6.7-.5-9.4-.1-3.6-.4-8.4-.5-10.5-.4-6.2-.4-12.3,0-18.5.2-2.6.4-4.8.5-4.9s.3-1.5.6-3c.6-3.3,1.5-6.6,2.6-9.9.3-1,.5-2,.7-2.9.1-.8.6-2.8.9-4.4.9-3.8,1.5-7.7,1.9-11.7.3-3.3.3-15,0-16.1-.3-1.1-.9-12.3-1.6-27.5-.1-2.8-.3-6.5-.5-8.3s-.3-3.7-.3-4.2c-.2-3.6-.3-7.7-.4-15.5,0-8.2-.4-18.5-.9-24.2-.6-6.9-1.1-20.2-.9-23.4,0-1.2.3-2.4.7-3.5.4-1,.7-2.1.9-3.2.2-.9.4-1.8.8-2.6,1.3-3,1.7-6.4,1-9.7-.2-.9-.4-1.7-.5-2.6-.3-2.1-1-4.2-2-6.1-.4-.9-1-2.5-1.4-3.5s-1.4-3.2-2.1-4.8c-2.8-5.9-3.1-6.5-3.8-8.4-.4-1-1.3-3.4-2-5.3-.4-1.4-1-2.8-1.7-4-.4-.5-.7-1.1-.9-1.7-.3-.9-.6-1.7-1-2.6-1.2-2.5-2.2-5-3.1-7.7-1.2-3.9-2.3-8.2-2.7-10-.5-3-1.3-7.8-1.5-10-.1-1.2-.4-2.5-.5-2.9-.1-.5-.2-1-.2-1.5,0-.6-.2-1.1-.3-1.7-.3-.9-.5-1.7-.6-2.6-.1-.9-.5-2.6-.8-3.9-.6-2.3-.9-4.7-.9-7.1,0-1.5-.3-4.8-.5-7.4-.2-2.6-.4-7.5-.5-10.9-.1-6.2-.4-17.3-.5-18.6-.2-2.8-.4-5.6-.7-7.8-.4-2.9-.7-5.9-1.1-9.7-.1-1.4-.5-4-.7-5.8-.2-1.8-.6-4.4-.7-5.8-.1-1.4-.3-2.9-.3-3.3,0-.4-.3-3.4-.5-6.6-.2-3.2-.5-7.3-.6-9s-.3-4.3-.4-5.9c0-1.6-.3-4.3-.5-6-.2-1.8-.4-4.2-.5-5.4-.2-2.3-.6-7.6-1-15.8-.1-2.5-.4-5.5-.6-6.6-.2-1.1-.5-3.2-.6-4.8-.1-1.6-.4-4.7-.7-7-.6-5.7-.9-8.9-1.1-11.9-.2-3.2-.2-23.3,0-25.4.3-4.5.6-19.4.6-30.4h-1.5c0,2.4,0,4.5,0,5.8Z"/>
        <path class="cls-1" d="M312,5.8c.2,2.1.6,5.3.8,7.2.3,1.7.4,3.5.4,5.2,0,1-.1,3.7-.1,5.9,0,4.3,0,15.2,0,20.6,0,1.7,0,7.2,0,12.2,0,5,0,10.6,0,12.5s-.2,5.1-.2,7.2-.1,4.6-.2,5.5c-.1,1.2,0,2.4.1,3.7.2,2.1.3,4.2.3,6.4,0,2.5.1,5.9.3,7.6.1,1.1.2,2.1.2,3.2.1,3.2.5,6.4.9,9.6.2,1.2.5,2.9.6,3.8.3,2.3.9,8.5,1.1,11.3,0,1.4.3,4.1.6,6.1.3,2.4.5,5.8.6,9.9,0,5.4.6,10.8,1.8,16.1.4,1.9.5,2.8,1.2,10.2.2,2.2.5,5,.6,6.3.1,1.2.3,4.3.5,6.7s.4,5.5.6,6.8c.2,1.6.3,3.2.3,4.8,0,1.4.1,2.9.4,4.3.2,1,.4,4.4.6,7.4.1,3,.4,8,.5,11.1s.3,6.1.2,6.7c.3,4.6.9,9.2,1.8,13.7.4,1.4,1,3.7,1.5,5,.7,2.1,1.8,5.5,2.9,9.3,1,3.9,2.9,7.6,5.4,10.7.7.9,1.8,2.5,2.4,3.4.7,1.1,1.5,2.2,2.4,3.2.7.7,1.3,1.5,1.8,2.3,1.3,1.8,2.8,3.5,4.3,5.1,1.1,1.1,6.4,5,6.9,5,.6.2,1.2.4,1.7.7.6.3,1.2.5,1.8.7,2.5.7,4.9,1.6,7.2,2.7,3.8,2.1,7.1,5,9.5,8.7,2.7,4.2,3.4,7.4,4.5,19.4.1,1.4.3,3.4.5,4.5s.3,2.8.5,3.9c.1,1.1.3,2.9.4,4,0,1,.2,2,.3,2.9.2,1.5.4,3.1.4,4.6.1,2,.4,5.6.6,7.9,1.5,17.6,3.1,23.7,7.4,27.9.7.8,1.5,1.4,2.5,1.7,1.4.3,2.8.2,4.1-.3l.7-.3.3-2.8c.2-1.5.4-4,.5-5.5.2-3,0-12.1-.3-22.8,0-4.9-.4-9.8-1-14.6-.2-1.3-.4-4-.4-6,0-2-.4-5.9-.7-8.7-.3-2.8-.7-6-.7-7.2,0-.8-.2-1.7-.4-2.5-.2-1.1-.3-2.1-.2-3.2,0-4.4-.4-11.8-.8-14.7-.3-3.6-.4-7.2-.3-10.9,0-10.1-.1-12.9-.9-16.6-.5-2.1-.9-4.6-1-5.7-.3-2.6-2.7-9.3-4.5-12.7-1.1-2.2-2.1-4.5-2.9-6.8-1-2.9-4.4-11.1-5.5-13.5-.3-.7-.7-1.4-.9-2.2,0-.1-1.2-2.8-2.8-5.9s-3.2-6.9-3.7-8.3-1.2-3.2-1.4-4-.9-2.7-1.3-4.2c-1.2-4.3-1.8-6.4-2.7-8.6-2.7-6.8-4.3-14-4.6-21.2-.1-1.9-.3-4.3-.5-5.4-.2-1.7-.2-3.5-.2-5.2,0-3.8,0-5.1,0-13.8,0-3.7,0-7.1.2-7.7.2-.8.2-1.7.3-2.6,0-1,.2-2,.4-3,.2-.8.4-2.4.5-3.5.2-2.7.7-5.4,1.7-7.9.8-1.9,2.1-5.3,3.5-9.4,1-3.2,2.3-6.3,3.8-9.3.6-1.1,1.3-2.4,1.6-2.9,1.1-2.1,2.9-5.7,3.2-6,.3-.4,3.9-7.6,6-12.2.7-1.6,2-4.2,2.8-5.9,2.4-5.4,3.8-11.3,4.1-17.2.4-4.8.8-8.9,1.7-15.7.4-3.3.8-6.3.8-6.6,0-1,.6-10.7.6-10.8,0,0,.2-1.3.3-2.7.1-1.3.3-2.7.6-4,.3-1.1.3-2.2.2-5.2-.1-1.5-.1-3.1,0-4.6h-1.6c0,1.2,0,2.4,0,3.6,0,1.7,0,3.3-.2,5-.6,3.6-1.1,7.3-1.4,11,0,2.3-.5,9.5-.8,11.6-.2,1.1-.4,2.9-.6,4-.1,1.1-.4,2.7-.5,3.5-.2,1.5-.5,4.4-1.2,12.2-.5,5.1-1.7,11.4-2.7,13.3-.6,1.1-4.7,9.9-5.5,11.6-1.7,3.7-3.1,6.5-5.3,10.4-.6,1.1-1.7,3.1-2.4,4.5-.7,1.4-1.5,2.8-1.7,3.2-.5.8-3.2,7.6-3.8,9.6-.2.8-.5,1.5-.9,2.2-.3.5-.8,1.9-1.2,3.2s-1.1,3.1-1.4,4.1c-.9,2.6-1.5,5.4-1.7,8.1,0,1.1-.3,2.5-.4,3.1-.1.8-.2,1.6-.2,2.4,0,1-.2,2-.4,3.1-.3,1.5-.3,3.5-.2,14,0,8.1.2,13.3.5,15.3.2,1.7.4,4.4.6,6.1.1,1.7.3,3.3.3,3.5s.5,2.3.9,4.5c.5,3.1,1.4,6.2,2.6,9.2,1.2,3,2.1,6.1,2.9,9.2,1,3.5,2.2,7,3.6,10.4.5,1,1,2.4,1.3,2.9.3.6,1.3,2.8,2.3,4.8s1.9,4.1,2.1,4.6c.2.5.8,2,1.5,3.4.7,1.4,1.4,3.2,1.7,4s.8,2.2,1.2,3.1,1.3,3.4,2.1,5.5c.9,2.5,1.9,4.9,3.1,7.2,1.8,3.5,3.1,7.1,4.1,10.9.7,3.4,1.3,6.5,1.5,7.7.1.7.3,1.6.3,1.9.2,1.2.5,11.8.6,17.5,0,2.7,0,5.4.3,8,.5,4.3.8,8.7.8,13.1,0,1.4,0,2.8.2,4.1.1.8.4,3.6.7,6.1s.6,5.9.8,7.6.3,4,.3,5.4c0,2.3.2,4.6.6,6.8.3,1.9.9,13.1.8,13.7,0,.3.2,7.8.4,11.8.3,4.6-.1,14.3-.7,16.5-.3,1.2-1.3,1.7-2.9,1.3-1.2-.3-3.6-3-4.6-5.1-1.5-3.6-2.5-7.5-3-11.4-.1-1.2-.4-3.5-.6-5-.6-5.2-1.3-12.5-1.3-14.5,0-1.2,0-2.4-.2-3.6-.1-.9-.3-2.7-.4-4s-.4-4.4-.7-6.8-.7-6.4-.9-8.8-.5-5-.6-5.7c-.4-2.5-1-4.9-1.6-7.3-1-3.3-5.2-8.5-9-11.1-3.3-2.3-4.6-2.9-9.7-4.5-2.7-.8-5.3-2.1-7.6-3.7-2.1-1.5-4-3.3-5.5-5.3-2-2.3-3.9-4.7-5.6-7.1-.8-1.2-2-2.8-2.6-3.7-2.8-3.3-4.8-7.3-5.8-11.6-.3-1.1-1-3.4-1.6-5.2-1.6-4.2-2.7-8.5-3.3-13-.1-1.1-.3-2.1-.5-3.1-.1-.2-.6-9.8-.6-12s-.1-3-.3-5.4c-.2-2.4-.3-6.1-.4-8.3,0-2.1-.3-5-.5-6.4-.2-1.4-.3-2.8-.4-4.2,0-1,0-2.7-.2-3.9s-.3-4-.5-6.2c-.1-2.2-.4-4.9-.5-6-.1-1.1-.4-3.8-.6-6-.5-5.6-1.1-10.8-1.2-11-.2-.3-1.3-6.8-1.5-8.8-.1-1.2-.3-4.7-.3-7.8,0-2.6-.2-5.1-.5-7.7-.3-1.8-.5-4.2-.9-10.3,0-.9-.2-2.5-.3-3.5-.1-1-.3-2.7-.3-3.8-.2-2.6-.5-5.1-1-7.7-.4-2.3-.6-4.5-.7-6.8,0-1,0-2.1-.3-3.1-.6-5.6-.8-11.1-.7-16.7v-4.7c0-3.3,0-3.5.3-8.7.2-3.7.2-16.3,0-25.7,0-.3,0-7.2,0-15.3,0-13.9,0-14.9-.4-17-.3-1.9-.6-3.8-.7-5.8-.1-1.9-.4-4.6-.7-5.9,0-.1,0-.2,0-.4h-1.6c0,.4.1.8.2,1.2.1.5.4,2.5.6,4.6Z"/>
        <path class="cls-1" d="M327.3,11.8c0,.3.2,2.1.3,4s.4,4.8.5,6.5c.1,1.7.3,4.3.4,5.8.3,3.7.3,17.2,0,19.5-.1,1-.3,4.7-.3,8.1,0,5.9-.6,14-1.1,17.9-.1,1-.2,2.4-.2,3.1,0,1-.1,2-.2,2.9-.6,4.3-.9,8.6-.9,13,0,2.6,0,4.9-.1,5,0,.5,0,1.1.1,1.6.4,2.2,1,12.9.9,15.2,0,4.7.2,9.3.7,14,.5,3.2,1,8.4,1.3,13.2.2,3.8.6,7,1.6,15,.3,2,.6,4.9.7,6.3,0,1,.2,1.9.3,2.8,0,0,.2,2.5.2,5.5s.2,5.7.2,6.2c0,.5.2,4.6.3,9,0,7.9,1,15.8,2.8,23.5,1.6,8.2,4.4,16.2,8.2,23.7,1.4,3,5.2,12,5.5,13.1.2.5.4,1,.7,1.4.3.5.5,1,.7,1.5.4,1.9,3.5,7,5.2,8.7,2.9,2.7,6.4,4.6,10.3,5.5,5.4,1,7.5-.3,9.1-5.7.5-1.5,1-3.3,1.2-4.1.5-1.8.3-8.3-.2-9.6-.2-.7-.4-1.5-.5-2.2-.5-2-1.2-4-2.1-5.9-1.4-2.8-2.6-5.7-3.5-8.6-.3-.9-.6-1.8-1.1-2.6-.4-.8-.8-1.8-1-2.3-.7-1.5-1.5-2.9-2.5-4.2-.4-.7-.7-1.5-.9-2.3-.4-1.3-.9-2.6-1.5-3.9-.8-1.7-1.5-3.4-2.1-5.2,0-.3-.4-1.3-.8-2.1-1-2.3-1.9-4.7-2.7-7.2-.3-1-.8-2.7-1.1-3.7s-.9-3.4-1.3-5.4c-.8-4-1.1-5.4-2.1-7.3-.4-1-.8-1.9-1-2.9-.4-1.7-.5-2.2-1.2-4.6-.6-1.9-1-3.9-1.3-5.9-.1-1-.3-2.6-.4-3.5,0-1-.3-3.7-.5-6-.3-3.6-.4-7.3-.3-11,.1-8.2.1-9.8-.1-17.6-.3-10.3-.2-12.6,1-16.1.2-.7.4-1.4.6-2.1.4-1.2.8-2.4,1.3-3.6.7-1.8,1.5-4.2,1.9-5.3.3-1.2.7-2.3,1.2-3.4.3-.8.6-1.6.8-2.5.5-2.6,1.2-5.2,2.1-7.7.5-1.2,1.1-2.9,1.4-3.8,1-3.1,2.3-6.1,3.8-9,1.1-2,2-4.1,2.8-6.2.3-.9.8-2.1,1-2.6s1-2.4,1.6-4.1,1.7-4.5,2.3-6.1c1.2-3.1,2.1-6.4,2.6-9.8.3-2.2.7-4.3,1.4-6.4,1.4-5.2,2.2-10.6,2.3-16,0-1.2,0-2.4-.1-3.6-.5-3.1-.9-6.3-1.1-9.5-.1-1.9-.4-4.8-.5-6.6-.1-2-.3-3.9-.6-5.9h-1.6c0,.5.1.9.2,1.3.1.9.3,3.2.4,5.2.3,5.4.7,9.3,1.1,13,.7,6.6.3,13.3-1.3,19.7-.9,3-1.5,6-2,9.1-.1,1.1-.4,2.1-.7,3.2-.3,1-.9,2.9-1.3,4.2-.4,1.3-.8,2.6-1.4,3.8-.4.9-.8,1.8-1,2.8-.3,1.2-.8,2.3-1.3,3.4-.9,1.9-1.6,3.7-2.7,6.7-.3.9-.7,1.7-1.2,2.5-.4.6-.7,1.2-.9,1.9-.2.5-.9,2.3-1.7,3.9-.8,1.9-1.6,3.8-2.2,5.8-.4,1.3-.9,2.6-1.4,3.9-.8,2-1.4,4-1.7,6.1-.4,1.6-.9,3.1-1.6,4.6-.3.6-.5,1.3-.6,2-.2.8-.4,1.7-.7,2.5-.4.9-.7,1.7-1,2.6-.3,1-.7,2.2-.9,2.6s-.4,1.4-.6,2.2c-.2.7-.4,1.4-.7,2.1-.7,1.3-.8,4.3-.6,13.1.2,10.7.2,11,0,18.8-.1,2.7-.1,5.4,0,8.1.1,1,.4,3.5.6,5.5.2,2,.5,4.8.6,6.2.3,2.6.7,5.1,1.2,7.7.1.6.2,1.3.3,1.9.1.7.3,1.3.7,1.9,1.6,2.9,3.9,10.3,3.9,12.5.3,1.8.8,3.6,1.4,5.3.2.4.5,1.7.8,2.8.2.9.5,1.8.9,2.6.4.8.7,1.5.9,2.3.3.8.6,1.6.9,2.4.4.8.7,1.5.9,2.4.6,1.8,1.3,3.5,2.1,5.1.2.3.7,1.7,1.1,2.9.5,1.4,1.1,2.7,1.9,4,.7,1,1.2,2.1,1.7,3.3.3.9.7,1.8,1.1,2.7.3.5.5,1.1.5,1.7,0,.4.2.8.4,1.2.3.4.5.7.6,1.2,0,.3.7,1.7,1.3,3,.5.9.8,1.8,1.1,2.8,0,.4.2.7.5,1,1.3,1.9,2.6,7.2,2.9,11.7.1,2.4,0,3.6-1.3,8.3-.4,1.5-1.7,3.8-2.4,4.2-.5.2-1.1.4-1.7.5-2.4.6-7.1-.9-9.6-2.9-.6-.5-1.2-.9-1.8-1.3-1.7-1.1-4.3-5-6-9.2-.3-.8-1.1-2.5-1.7-3.9-.6-1.4-1.6-3.7-2.1-5.2s-1.7-4-2.4-5.5c-4.9-9.8-8.3-20.4-9.9-31.3-1.4-8.5-1.4-8.9-1.7-16.8-.3-11.1-.6-19.7-.8-20.5,0-.4-.2-1.8-.3-3.1-.1-1.3-.6-5.3-1.1-9-.5-3.6-1-9.4-1.3-12.7-.6-8.2-.8-10.6-1.1-11.9-.5-4.5-.7-9-.7-13.5,0-3,0-6-.3-9-.3-3.2-.5-7-.5-8.3-.1-3.7.5-16.7.9-18.3,0-.3.2-2.2.4-4.2.2-3.6.5-6.7.9-12.3.1-1.6.3-5.5.3-8.7s.2-9.1.3-13.1c.2-4.9.2-8.3,0-10.4-.1-1.7-.3-4.7-.5-6.7-.1-2-.4-5.4-.6-7.4s-.4-4.6-.5-5.5c0-1-.2-2.8-.4-4.1s-.3-4.2-.4-6.4c0-.3,0-.5,0-.8h-1.8c0,.3,0,.6,0,.9.1,2.9.6,8.8.9,10.9Z"/>
        <path class="cls-1" d="M360.7,2c0,.5.3,1.8.6,2.9.2,1.1.5,2.8.7,3.7s.4,2.6.6,3.8c.3,6.1.1,12.3-.4,18.4-.2,1.6-.4,3.5-.4,4.3,0,1.1-.2,2.1-.4,3.2-.2,1-.8,3.2-1.3,5-.6,2.4-1.5,4.8-2.5,7.1-.9,2.1-1.8,4.2-2,4.6-.2.6-.5,1.3-.8,1.9-.3.7-.6,1.5-.9,2.2-.2.6-.7,2-1.1,2.9s-.9,2.2-1.1,2.7-.4,1.2-.5,1.4-.6,1.8-1.1,3.4c-1,3.3-1.7,5.2-2.2,5.6-.3.2-.7.3-1.6.1-1.3-.1-2.4-.9-2.9-2.1-.6-1.4-1.6-13.6-1.8-22.9,0-1.9-.2-3.8-.5-5.7-.2-1-.5-2.4-.6-3.1s-.4-4.8-.5-9.2c-.1-4.4-.3-9.1-.5-10.6-.3-3.2-.5-12.6-.7-21.7h-1.8c0,1.1.2,5.3.2,9.8,0,4.7.2,8.6.3,8.8.2.4.7,11,.6,15.1,0,4.8.5,10.5,1.4,12.8.1.3.3,3.5.5,7.1.4,10.3.6,13.3,1.4,18.6.5,3,1.6,4.2,4.4,4.9,3.1.8,3.5.2,6.1-7.5,1.7-5.2,3.3-9.6,4.4-12,.2-.4.3-.7.4-1.1,0,0,.9-2.1,2-4.6s2.2-5.2,2.5-6.1c.3-.9.7-2.5,1-3.7,1.3-4.5,1.6-7.2,2-17.5.2-3.6.3-7,.2-7.6,0-.6-.1-2.2-.2-3.5,0-1.4-.2-2.8-.4-4.1-.2-.9-.6-3.2-.9-5.2-.3-1.7-.6-3.5-.9-4.3h-1.8c.2.9.4,1.6.4,2Z"/>
        <path class="cls-1" d="M410.1,23.3c-.1,1.4-.4,4.1-.6,6-.2,1.9-.6,4.7-.8,6.1s-.5,3.3-.6,4.1c0,.8-.2,2.4-.4,3.5-.3,2.9-.4,4.5-.6,9.3,0,1.8-.2,3.6-.5,5.4-.2,1-.4,2-.6,3-.5,2.8-1.5,5.5-2.9,8-1,1.9-2.5,4.1-6.4,9.1-1.9,2.4-4.9,6.3-5.7,7.4-2.7,3.8-6,8.1-6.8,9-.4.5-.7.9-1,1.4-.4.6-1.4,1.9-2.1,3-1.8,2.5-3.2,5.2-4.2,8.1-1.1,2.8-1.6,4.8-2.1,9.7-.2,1.8-.5,3.9-.6,4.7-.4,2.8-.5,6.6-.6,21.5-.2,22.6-.2,21.1.5,24.9.3,1.8.8,4.4,1.1,5.8.8,4.1,1.6,8.3,1.7,8.5,0,0,.3,1.2.6,2.4.3,1.5.8,2.9,1.3,4.3.5,1.2.8,2.4,1,3.7.3,2.6.3,2.6,8.8,20.1.9,1.8,2,4.1,2.6,5.2.6,1.1,1.3,2.7,1.7,3.7s1.3,3,2.1,4.6c1.7,3.5,3.1,7.2,4.2,11,.6,2.1,1,6,1.1,12.1,0,2.3.2,4.7.6,7,.1.6.3,2.2.4,3.5.3,5.2.8,11.2,1.1,13.1.2,1.1.4,3.2.5,4.7,0,1.5.4,4.1.7,5.9.7,3.4,1.1,6.9,1.3,10.3.4,6.4,1.2,14.2,1.9,18.8.6,4.6.9,9.2.8,13.8,0,2.9,0,6.4,0,7.8s.1,5.4.3,8.9c.2,3.3.2,6.6,0,9.9-.3,5.7-.3,11.4,0,17.1.1,1.2.4,4.2.5,6.8.7,13.9,1.4,22.9,1.8,25.7.5,3.3.7,6.7.8,10,.3,8,.5,27.5.2,31.3-.1,2.7-.1,5.5,0,8.3.3,5.4,1,10.7,2.1,15.9.7,3.7,1.1,7.5,1.3,11.3.2,2.8.5,6,.7,7.2.7,5.9,1,11.8.9,17.7h1.8c0-.8.1-1.6.2-2.4,0-5.2-.3-10.3-1-15.4-.3-1.7-.5-3.9-.6-4.8-.3-4.7-.9-9.3-1.7-13.9-.2-1-.4-2.5-.6-3.2-.1-.7-.4-2.5-.7-4-.8-5.7-1-11.5-.7-17.3.1-2.8.2-5.3.1-5.4,0-.1-.1-4.2-.1-9,0-11.9-.5-23.1-1.2-26.1-.3-1.1-1.1-14.5-1.4-21.6-.1-2.8-.3-6.8-.5-8.8-.2-2.5-.3-6.3-.2-11.3.2-16.9-.2-43.3-.8-46.6-.2-1.1-.5-2.9-.6-4-.1-1.1-.5-3.5-.7-5.3s-.6-4.9-.7-7c-.1-2-.3-4.6-.4-5.7-.1-2.1-1-9.2-1.2-9.5-.4-2.5-.7-5-.8-7.5,0-.8,0-1.6-.2-2.4-.5-3.1-.9-6.3-.9-9.4-.1-2.4-.4-5.3-.6-6.4-.5-3.2-.7-5.2-.9-13.2-.1-3.9-.3-5.9-.8-7.1-.2-.7-.4-1.3-.5-2-.1-.7-.4-1.4-.7-2-.4-.6-.6-1-1.7-4.2-.3-.8-1-2.5-1.6-3.7s-1.4-2.9-1.8-3.9c-.4-1-1.4-3.1-2.2-4.7s-2-4-2.6-5.2-1.2-2.5-1.4-2.8c-.2-.3-.6-1.1-.8-1.7s-1.4-3-2.5-5.3c-3.2-6.6-3.5-7.3-3.7-9.1-.2-1.2-.6-2.4-1-3.6-.4-1-.9-2.3-1-2.8-1-3.7-2.3-9.8-3.1-14.6-1.1-6.3-1-3.6-.9-23.6,0-4.3,0-8.2,0-8.6,0-3.7.4-15.9.5-16.8.1-.6.4-2.8.6-4.9.2-4,1.2-7.9,2.8-11.5,1.8-4,4.2-7.7,7-10.9,1.8-2.2,4.8-6.2,5.8-7.7,1.2-1.7,3.5-4.9,5-6.6.7-.8,1.6-2,2.1-2.7.6-.8,1.2-1.5,1.8-2.2,1.9-2.1,3.4-4.5,4.5-7.1.3-.9,1-2.4,1.4-3.3.6-1.3,1-2.7,1.1-4.1.1-1,.3-2.1.6-3.1.3-2.1.4-4.2.4-6.4,0-4.3.4-8.5,1-12.8.1-.8.4-2.9.6-4.6s.5-3.8.6-4.6c.1-1,.2-2,.2-3,0-1.3.2-2.7.3-4,.5-5.9.7-11.7.5-17.6,0-1.3-.2-2.9-.2-4.7h-1.7c.4,12.7.3,16.8-.4,23.3Z"/>
        <path class="cls-1" d="M431.5,59.9c0,2.7.5,5.5,1.1,8.1.2.8.7,3.2,1.1,5.3,1,5.5,2,8.1,4.2,11.4.3.5.9,1.4,1.2,1.9,1.2,1.9,4.1,4.5,10.3,9.5,5.8,4.6,8.3,8.1,13.6,18.6l1.4,2.7.4,3.8c.2,2.1.4,3.8.5,3.9.1.2.5,10,.4,11,0,.4,0,5.5-.1,11.3,0,13.7-.2,16.7-1,19-1.1,3.1-1.8,6.3-2.3,9.6-.1,2.2-.7,4-2.5,8.2-2,4.5-2.2,4.9-5.2,8.5-1.4,1.7-3.1,3.8-3.8,4.7-.6.7-1.2,1.4-1.9,2.1-2.4,1.9-6.4,5.9-14.5,14.4-3,3-5.8,6.2-8.3,9.6-5.4,7.1-7.1,10.6-7.5,15.9-.1,1.6-.3,3.7-.5,4.7-.2,1.7,0,4.8.7,13.7.1,1.6.3,7.3.4,12.7s.2,9.8.2,9.9c.1,1,.2,2,.1,3,0,1.5.2,4.5.5,6.6.2,2.1.6,6.1.8,9,.6,8.6.8,10.3,1.1,13.2.8,6.9.9,7.8.9,8.1,0,.5.4,7,.6,9.8.1,1.2.3,3.5.3,5.3,0,1.7.2,3.2.2,3.3.1,1.1.2,2.1.2,3.2,0,1.7.2,3.9.4,4.9.5,4.2.5,6.3.2,8.6-.2,1.2-.5,3.4-.6,4.7-.1,1.4-.5,3.6-.8,5.1-.8,3.8-.7,9.8,0,12.5.3,1,.6,2.2.7,2.6s.7,2.3,1.4,4.2c1.2,3.5,2,7.1,2.5,10.7,0,.6.2,1.9.3,2.8s.3,3.4.4,5.3.2,5.7.4,8.4c.1,2.7.2,6.2.2,7.8-.1,4.3.3,23.5.5,26.8.1,1.6.3,6.5.3,11.1s.2,8.8.3,9.4c.2,1.3.4,5.2.6,12.3.1,4.8.4,11.3.5,13,0,.5.1,5.6.2,11.6h1.8c0-3.6,0-7-.1-8.5,0-1.6-.2-4.5-.4-6.5-.1-2-.3-5.9-.3-8.7-.1-5.9-.5-13.3-.7-13.7,0-.1-.2-4.1-.3-8.8,0-4.7-.2-9.9-.3-11.6s-.2-6.3-.2-10.3,0-7.4-.1-7.4c0,0-.2-4.1-.2-8.9s-.2-9.7-.3-10.9c0-1.2-.2-3.7-.2-5.5,0-3.5-.3-7-.9-10.4-.5-3.1-1.3-6.1-2.4-9-1.1-2.8-1.9-5.7-2.4-8.7-.3-3.1-.1-6.3.5-9.4.8-4.3,1.4-8.6,1.7-13,0-.8-.1-3-.2-4.8-.1-1.8-.4-4.6-.5-6.2-.1-1.6-.3-3.9-.4-5.2-.1-.8-.2-1.7-.1-2.5,0-1,0-2.1-.2-3.1-.2-1.5-.4-3.8-.5-5-.2-3.8-.9-11.4-1.9-21.8-.2-2.1-.5-5.3-.6-7.1-.1-1.8-.4-5.4-.7-7.9-.6-5.7-.8-10.8-.8-20.8,0-4.2-.1-9-.2-10.7-.1-1.7-.2-3.4-.2-3.9,0-.5-.2-2.4-.3-4.4-.5-4.5-.1-9.1,1.1-13.5.9-3,3.3-6.9,8.1-13.2,1.1-1.4,1.7-2.1,7.6-8.3,1.6-1.7,3.3-3.6,3.8-4.2,2.1-2.3,4.4-4.5,6.8-6.6,2.6-2.3,5-4.8,7.1-7.6,1.3-1.7,2.8-3.5,3.3-4.1,1.1-1.2,1.8-2.6,3.1-6,.4-1.1.9-2.1,1.4-3.1.9-2.1,1.6-4.4,1.9-6.7.1-1.1.4-2.6.6-3.3.2-.7.4-1.8.5-2.3.2-1,.5-1.9.9-2.8.8-2.1.8-1.1.9-18.8,0-6.5.2-11.8.3-11.9h0c.4-.4,0-7.8-1.1-17.5-.3-2.4-.4-2.8-1-3.8-.3-.4-.6-.8-.7-1.3,0-.6-4.1-8.2-5.7-10.6-2-2.8-4.4-5.4-7-7.6-1-.8-2-1.6-2.9-2.4-.6-.6-2-1.8-3-2.6-3.3-2.6-6-5.9-7.8-9.7-1.1-2-1.8-4.2-2.1-6.5-.2-1-.7-4.1-1.3-6.7-.6-2.8-1-5.7-1.2-8.6-.6-7.9-.1-37,.7-48.4.1-1.7.3-6.4.4-10.9h-1.6c0,4.7-.2,9.4-.7,14-.8,11.1-1,37.3-.5,45.9Z"/>
        <path class="cls-1" d="M448.9,7c0-1.1.1-3,.2-4.2,0-.5,0-1.6,0-2.9h-1.9c0,1.3,0,2.4,0,3.2-.1,3.9-.3,6.9-.6,9.2-.1.9-.3,3.3-.4,5.3,0,2-.2,4.5-.4,5.4-.3,2.8-.7,9.2-.7,13,0,5.7.5,11.4,1.2,17,.1,1,.3,2.8.4,4,.1,1.2.4,2.5.7,3.7.3,1.2.6,2.4.8,3.6,1,5.4,2.8,10.6,5.2,15.5,2.1,4.2,5.5,8.2,11.7,13.8,5.1,4.6,6.2,5.5,7.5,6.7,1.1,1,1.5,1.6,2.9,4.5,2.9,6.1,3.1,6.5,3.7,11,.2,1.5.5,3.4.6,4.2.1.8.4,2.4.6,3.7.2,1.2.7,4.5,1.1,7.2s.8,5.3.8,5.8c0,.5.1,1,.4,1.4.3.7.5,1.4.6,2.1.2,1.7.2,2.5-.1,7.9-.2,3-.2,6.1,0,10.5,0,1.3-.1,2.7-.4,4-.5,2.2-.9,4.4-1.1,6.6-.2,2.7-.6,5.3-1.3,7.9-.4,1.2-.8,3-.9,3.9-.2,1-.4,2-.8,3-.6,1.4-1,3-1,4.5,0,1.1-.4,2.2-1,3.2-.4.8-1,1.9-1.3,2.6s-.8,1.9-1.2,2.8c-.8,1.8-1.8,3.4-2.9,5-.3.4-1,1.3-1.6,2.1-.7,1-1.5,1.9-2.4,2.7-1.9,1.8-5.6,5.6-8,8.2-3.6,3.9-9,9.4-9.9,10.2-2.4,2.3-4.7,4.8-6.9,7.4-2.9,3.9-5.3,8.2-6.9,12.7-2,5.9-2,5.9-2.4,14.5-.4,7.4-.4,14.9.2,22.3,0,.7.2,8,.2,16.2s.2,15,.2,15.1.2,2.8.2,6c.1,6.3.7,14.1,1.1,15.1.2.9.3,1.8.4,2.7,0,1.1.3,3.5.6,5.3.2,1.8.6,4.7.8,6.4s.5,4,.7,5.2c.9,5.4,1.3,8.2,1.6,10.7.3,2.8,1.1,8.4,1.5,11,.1.8.3,2.8.5,4.5s.4,4,.6,5.3c.2,1.2.6,3.9.8,5.9,1,7.5,1.4,10.5,2.3,15.7.4,2.3.7,4.5.8,6.8,0,1.6.3,4.8.5,7.3,1,13.3,1.5,24.9,1.1,28-.1,1,0,2,0,3,.1.9.3,5.2.4,9.5.1,4.3.3,9.5.4,11.5,0,2,.2,3.7.2,3.8.1.9.2,1.9.2,2.8,0,1.5.2,4,.3,5.6.1,1.6,0,4.4,0,6.3-.2,3.8,0,7.6.3,11.3,0,.2,0,.5,0,.7h1.6c0-.4,0-.8,0-1.1-.2-1.5-.3-6-.2-10.1,0-4.6-.1-9.2-.3-12.3-.6-8.5-1.3-27.3-1.1-30.6.2-3.2,0-12.9-.3-16.6-.6-7.6-.8-9.7-.8-13,0-1.4,0-2.8-.2-4.1-.1-.5-.3-1.8-.4-2.8-.2-2.2-.5-4.5-1.5-10.3-.4-2.3-.9-5.6-1.1-7.3-.2-1.8-.5-4.2-.7-5.5-.6-4-1-7.9-1.4-11.3-.5-4.4-1-8.6-1.3-9.6-.2-.7-.7-4.2-1.1-8.1,0-.8-.3-2.5-.5-3.9-.7-4.5-.8-5.8-1.1-8.4-.1-1.4-.4-3.7-.7-5.1s-.5-3.7-.6-5.1-.3-3.9-.6-5.5c-1-6.9-1.2-11.3-1.5-38.2,0-6.3-.2-14.2-.4-17.6-.3-5.5-.3-11,0-16.5.3-7.8.6-9.9,2.1-14.4,1.1-3.2,2.5-6.3,4.3-9.1,2.2-3.7,3.3-4.9,10.4-12.1,3.7-3.8,7.2-7.4,7.8-8.1,2.5-2.9,5.2-5.6,8-8.1,1.6-1.4,3-2.9,4.3-4.6,1.2-1.6,2.3-3.3,3.3-5.1,0,0,.4-1,.9-2,.4-.7.7-1.4.9-2.2.3-.9.7-1.8,1.2-2.6.9-1.4,1.4-2.9,1.4-4.6,0-1.2.2-2.3.7-3.4.4-.8.6-1.6.8-2.5.2-1.2.5-2.4.9-3.5.7-2.5,1.2-5.1,1.4-7.8.2-3,.7-5.9,1.4-8.8.5-1.7.5-2,.3-4.5-.2-2.8-.1-5.6,0-8.5.2-3.2.3-6,.4-6.4,0-.3.1-.7.1-.8,0-.4,0-.7-.2-1.1-.2-1-.3-2-.3-3,0-1.8-.2-2.2-.6-2.6-.5-.4-1-3.1-1.6-8,0-.5-.2-1.4-.3-2-.1-.6-.5-3.2-.9-5.8-1.4-9.3-1.5-9.5-3.7-14.1-2.2-4.6-2.8-5.4-4.8-7.2-.9-.8-2.7-2.4-4-3.6s-3.4-3.1-4.5-4.1c-6.4-5.7-8.8-9.2-12-17.5-1.1-3-1.9-6-2.4-9.1-.3-1.6-.8-3.8-1-4.8-.9-5.5-1.5-11-1.7-16.6-.4-6.3-.3-10.1.6-20.3.5-6.4,1-12.1,1.1-14.9Z"/>
        <path class="cls-1" d="M479.2,18.6c0,1.4.2,3.1.4,3.8.3,2.1,1.2,7.4,1.4,8.5.1.6.5,2.8.8,4.8,1.1,6.6,1.3,7.9,2.1,12.7.5,2.6,1,5.7,1.1,7,.2,1.2.5,3.1.7,4.1.4,2.1.6,3.1,1.1,6.6.2,1.3.4,2.4.5,2.5.1.2,1,6.6,1.2,8.5,0,1,.3,2.6.5,3.7s.4,3.7.6,5.9.6,6.1.9,8.7c1.2,8.1,1.4,10.5,1.4,13.7,0,1.7.2,5,.4,7.3s.4,4.9.4,5.8c0,1.5.6,6.5,1,9.3.1.8.3,2.7.5,4.4s.4,3.9.5,5c.1,1.1.3,3.1.5,4.4.1,1.3.4,3.4.5,4.7s.3,2.9.4,3.6c0,.7.1,2.8.3,4.7s.3,6.6.4,10.3c.1,3.7.3,9.4.5,12.6.1,3.2.2,6.5.2,7.3,0,.8,0,5.4,0,10.3s0,9.1,0,9.3c0,1.5.6,11,.8,12,.3,1.6,1.1,3.1,2.2,4.3,1.4,1.2,2.4,1.5,6.2,1.6,3.3.1,3.7.1,5.2-.4,1-.3,2-.8,2.9-1.4,1.4-1,1.9-2,2.2-4.8,0-.8.3-2.4.5-3.4.3-1.6.3-3.2,0-4.8-.2-1.7-.3-5.7-.2-9.7,0-8.7,0-9.5-.2-18.7-.3-8.4-.4-10.8-.6-11-.3-.5-.7-6.6-.7-13.3,0-3.1,0-6.1-.5-9.1-.2-1-.3-2.1-.3-3.2,0-.8-.1-2.7-.3-4.2-.2-2.2-.3-4.4-.3-6.6.1-6.5.8-17.8,1.2-21,.2-1.6.6-4.3.8-5.9.8-5.9,1.3-8.9,2-11.1.4-1.5,1.1-2.8,2.2-3.9,2.2-2.5,3.6-3.2,7.1-3.8.7-.1,1.4-.3,2.1-.6.6-.2,2.4-.8,3.8-1.1,2.7-.7,4-1.2,10.1-4.1,1.1-.5,2-.9,2.8-1.4v-2c-.7.4-1.4.8-2.1,1.1-1.3.6-3.3,1.5-4.5,2.1-2.7,1.3-5.5,2.3-8.4,3-.8.2-1.6.4-2.3.7-.5.2-1.1.4-1.6.5-1.7.2-3.3.6-4.8,1.4-1.9,1.2-3.6,2.8-4.9,4.7-1,1.6-2.1,5.6-2.6,9.6-.1,1.1-.4,2.7-.5,3.5-.8,4.7-1.3,9.4-1.5,14.2,0,2.2-.2,4.8-.3,5.9-.3,4.7-.3,9.5,0,14.2.1,1.3.3,3.4.3,4.6,0,1.2.2,2.8.3,3.7s.3,5.5.5,10.3.4,9.9.6,11.3c.2,2,.3,3.9.3,5.9,0,1.8,0,5.1.1,7.2.3,7.9.4,14.3.3,16.8-.1,3.6,0,8.3.1,10.7.1,1.7,0,3.4-.3,5.1-.9,5.3-.9,5.3-3.5,6.5-1.4.7-2.3.7-6.5.4-3.4-.2-5.1-1.3-5.6-3.6-.4-1.8-.7-9.7-.8-22.5,0-7.3-.2-15.2-.3-17.5s-.3-7-.4-10.5c-.2-8.3-.5-15-.9-19.1-.2-1.8-.4-4.3-.6-5.6-.1-1.3-.3-2.6-.3-2.9,0-.3-.2-2.1-.4-3.9s-.4-4.8-.7-6.6c-.5-3.4-1-8.3-1.1-10.4,0-.6-.2-2.7-.3-4.6-.1-1.9-.3-4.9-.3-6.7s-.1-4-.2-5-.4-3.1-.5-5c-.2-1.8-.5-4.1-.7-5.1-.2-1.1-.4-2.1-.5-3.2-.5-6.8-1.8-18.5-2.6-22.2-.2-.9-.5-2.9-.8-4.5-.3-1.6-.7-4.4-1.1-6.3-.3-1.9-.7-4.2-.8-5.1,0-.6-.2-1.3-.3-1.9-.2-.7-.3-1.4-.4-2.2-.1-1.1-.5-3-.7-4.1-.6-2.9-1.1-5.9-1.3-7.4,0-.7-.3-2-.5-2.9-.5-2.8-1-5.6-1.3-7.6-.1-1-.3-2.4-.5-3.1-.3-1.9-.9-6.4-1.1-9.5-.1-1.6-.4-3.3-.7-4.9-.6-3-1.1-6-1.3-9,0-.4,0-.9-.1-1.3h-1.8c.6,5.1,1.1,8.7,1.8,12.4.4,2.1.7,4.9.8,6.2Z"/>
        <path class="cls-1" d="M500.9,14.2c0,0,.2,2.9.3,6.2.1,3.3.3,8.2.5,10.8.1,2.6.3,6.7.5,9.1s.3,4.7.4,5.3c.2,1.8.3,3.6.3,5.4,0,3.9.1,6.2.6,13.1,0,1.3.3,2.5.5,3.8.2.9.4,2.1.6,2.7.3,1.5.8,2.9,1.4,4.3.6,1.1,2.4,2.1,4.4,2.3.9.1,1.9,0,2.7-.4,1.3-.5,2.2-1.4,3.9-4,.5-.8,1.1-1.2,3-2.1,1.3-.6,2.7-1.2,4.1-1.6.8-.2,1.7-.5,2.4-.9,1.6-.8,3.2-1.3,4.9-1.7.9-.2,2.5-.7,3.5-.9,2.4-.7,4.7-1.7,6.8-2.9.6-.4,1-.8,1.3-1.4.7-1.8,1.2-3.7,1.5-5.6.2-1.5,0-27.2-.1-27.6,0,0-.2-4.7-.2-10.2,0-5.9-.3-11.7-.5-14-.1-1.2-.2-2.4-.2-3.6h-1.5c0,.8.1,1.6.2,2.5.2,1.9.4,6.7.5,10.6s.2,8.9.2,11.2c.3,10.8.4,15.6.3,20.5,0,2.9,0,5.9,0,6.6-.1,2.4-.4,4.7-1,7-.1.8-.5,1.5-1.1,2-1.2,1-4.9,2.6-8.1,3.4-1.6.4-3.9,1.1-5.2,1.6s-3.1,1.1-4.1,1.4c-1.5.5-2.9,1.2-4.3,1.9-2.6,1.3-3.1,1.7-5,4.2-1.6,2.2-3.7,2.8-5.8,1.7-1.3-.7-1.9-1.8-2.5-5.1-.8-3.9-1.2-8.1-1.3-15.7,0-3.9-.2-7.7-.4-8.5s-.3-3.5-.5-6c-.1-2.5-.3-5.1-.3-5.8,0-.6-.2-3.9-.4-7.2-.3-8-.4-9.4-.7-13.8-.1-2.1-.3-7-.4-11,0-.6,0-1.1,0-1.6h-1.6c0,1.6.1,3.3.2,5,.1,4.9.3,9,.4,9.1Z"/>
        <path class="cls-1" d="M513.5,7.9c.2,2.6.5,5.1.9,7.7.1.6.3,2.2.5,3.5.1,1.4.4,3.9.6,5.7s.5,4.9.7,7.1c.5,6.7,1.3,10.4,2.5,13,.8,1.5,4,2.6,8,2.6,2.1.1,4.2-.6,5.8-2,1.2-1,1.2-1.1,1.4-2.8,0-.9.2-5.9.3-11s.2-9.9.3-10.6.2-4.7.1-8.9c0-4.9,0-8.9,0-12.1h-1.5c0,3.6,0,7.5,0,10.5,0,4.9,0,10.3-.2,11.9s-.3,6.3-.3,10.4c0,4.1-.2,8.2-.3,9.2-.2,1.5-.4,1.8-1,2.4-.6.5-1.3.8-2.1,1.1-1.4.5-1.9.5-5.6,0-1.9-.2-2.1-.3-2.8-1.1-1.5-1.7-2.1-3.8-2.7-10.8-.2-2.6-.7-6.9-1.2-10.6-.1-1-.3-3.1-.5-4.6,0-1.1-.2-2.3-.4-3.4-.1-.4-.4-2.4-.6-4.5-.2-2.1-.5-5.1-.7-6.7-.1-.8-.2-2.2-.3-3.8h-1.6c0,1,.1,2,.3,2.9.2,1.3.5,3.5.6,5Z"/>
        <path class="cls-1" d="M542.3,248.2c-2.3.6-3.9,1.6-6.6,3.8-2.3,1.9-2.3,2-3.7,4.9-.7,1.3-1.2,2.6-1.7,3.9-1.2,5.5-1.4,10-1.3,27.3,0,8.2.1,15.1.2,15.3.2,1.3.3,2.6.4,3.9.1,1.9.3,4.6.5,5.9.1,1.3.3,4.7.5,7.6.1,2.9.4,6,.5,7.1.3,2.8.9,12.8.9,15.9,0,1.5.1,3.9.3,5.3.5,5.2.9,9.3,1.4,12.3.2,1.7.7,5,1,7.4.3,2.4.7,4.9.9,5.5.2.7.5,2.1.7,3.2.9,4.5,3.2,12.2,4.1,13.4.2.3.6,1,.9,1.4,1.6,2.5,3.5,4.8,5.5,6.9v-2.7c-1-1.1-1.8-2.2-2.8-3.7-.5-.8-1.2-1.6-1.4-1.9-1.2-1.4-3.1-7.2-4.6-14.3-.3-1.5-.7-3.4-.9-4.3s-.4-2.4-.6-3.4c-.1-1-.4-2.8-.6-4-1.5-9.5-2.3-19.1-2.5-28.8,0-2.7-.2-5.6-.4-6.5s-.4-3.9-.6-6.7c-.7-10.8-.8-12.5-.9-12.6-.7-1.1-1-34.2-.4-41.4.5-5.7.9-7.5,2.2-10.6,1.3-3,1.5-3.2,4-5.2,1.5-1.3,3.3-2.3,5.2-2.9.8-.3,2.5-.9,3.8-1.5.2,0,.4-.1.5-.2v-1.9c-.7.3-1.3.5-1.8.8-.8.4-1.7.7-2.6.9Z"/>
        <path class="cls-1" d="M542.7,487.6c-.4,1.5-.8,3-1.1,4.6-.6,2.8-.8,5.6-.7,8.5,0,1.1,0,2.1,0,3.2h1.9c0-1-.1-2-.1-3-.2-2.1,0-4.3.3-6.4.9-4.6,2-8.1,3.7-11.4v-3.2c-1.3,2.2-2.5,4.5-4,7.7Z"/>
        <path class="cls-1" d="M21.8,3.4c.6,1.6.9,3.3,1,5,.1,1.7.4,4.7.6,6.8.2,2.1.4,6.2.4,9.7,0,2.8.1,5.7.4,8.5.2,1.4.5,4.2.7,6.2.5,5.5.5,9.5-.2,12.7-.9,4.1-1.5,5.1-2.5,4.2-1.1-1-1.8-2.9-2.5-7.2-.3-1.5-.6-3.4-.8-4.3s-.5-2.8-.7-4.2-.6-4.2-.8-6.1c-.6-5.1-1-10.1-1-15.2,0-2.3-.2-6.2-.2-8.5-.2-6.3.4-10.2,1.7-11h-2.2c0,0-.1.2-.1.3-.4.8-.7,1.7-.8,2.6,0,.4-.1.9-.2,1.3,0,0,0,1.9-.1,4.1,0,4,.2,11.2.7,19.8.4,5.9,1.2,11.7,2.2,17.5.2.8.7,3,1,4.8.7,3.5,1.5,5.8,2.4,6.8,1.1,1.2,2.7,1.6,3.6.8.6-.5,1.7-4.2,2.2-7.2.4-2.6.4-5.2.1-7.7-.1-1.4-.3-3.9-.5-5.5-.1-1.7-.4-3.9-.6-4.8-.3-2.6-.5-5.3-.4-7.9,0-5.3-.8-17-1.4-21.6-.1-1.1-.8-2.3-1.6-3.3h-2.8c.9.4,1.7,1.6,2.4,3.4Z"/>
        <path class="cls-1" d="M460.4,13.9c-1.7,1.3-2.1,2.7-2.4,7.5-.3,4.8,0,9.6,1,14.2.5,1.9.8,3.9.9,5.9,0,1.9.3,3.7.7,5.5.7,3.7,1.2,7.3,1.4,9.3,0,1,.2,1.9.4,2.8.2.7.3,1.5.4,2.2.1,1,.3,2,.6,3,.2.7.4,1.3.4,2,.3,1.7.8,3.3,1.6,4.9,1.3,2.6,1.9,3.5,2.9,4.6,1.3,1.4,2.9,2.5,4.6,3.4.3,0,.5.2.8.4.2.4,1.8.2,2.6-.3.6-.4,1-.9,1.4-1.5l.6-1v-6.2c-.1-11.2-.7-15.6-3-24.3-2-6.5-3.4-13.1-4.3-19.8-.4-3.3-1.2-6.5-2.4-9.6-1.1-2.1-3.8-4.1-5.8-4.1h0c-.9,0-1.7.3-2.3.9ZM462.9,14.9h0c1.5.4,2.8,1.2,3.7,2.5.7,1.2,1.2,2.5,1.5,3.9,0,.5.4,2,.7,3.4.3,1.4.7,3.6.9,4.8,1.1,6.7,1.3,8,1.7,9.3.2.8.9,3.3,1.5,5.5s1.3,4.9,1.6,5.8c.3,1,.5,2,.7,2.9.1.7.4,2.6.6,4.2s.6,4.7.7,6.8c.6,8.8,0,13.3-1.6,13.8-1.1.4-4.8-2.1-6.2-4.2-1.2-2-2.2-4.1-2.9-6.3-.1-.6-.5-2-.7-3.1-.9-4.2-1.6-8.5-2.1-12.9-.3-2.1-.7-4.7-.9-5.7-.2-1-.4-2-.4-3.1-.3-2.8-.7-5.5-1.3-8.3-.2-.6-.4-1.3-.5-1.9-.3-2.4-.5-4.8-.4-7.3,0-6.7.3-8.3,1.8-9.6.4-.4.9-.7,1.5-.8Z"/>
        <path class="cls-1" d="M239.8,95.7c.1-2.1.3-5.5.5-7.7s.4-5.2.7-6.8.6-4.9.8-7.3c.9-10.6,1.1-12.3,2.3-18.5.4-2.2.6-4.5.7-6.7,0-2.1.2-5.2.3-6.8.2-4.6.1-9.3-.2-13.9-.1-1.6-.3-3.9-.3-5.1,0-.9-.1-1.8-.3-2.6-.8-1.2-2-2.1-3.3-2.7-.6-.1-1.3-.4-1.7-.5-.5-.2-1-.2-1.5-.2h0c-1.1,0-2.1.5-2.8,1.3-1.1,1.4-2.3,7.6-2.4,12.8,0,2-.2,9.8-.2,17.3,0,7.5-.2,14-.2,14.4,0,.4-.2,1.8-.2,3.2,0,1.6-.3,3.2-.7,4.8-.3,1.1-.5,2.2-.6,3.3,0,.9-.2,1.7-.4,2.6-.2.8-.3,1.6-.3,2.4,0,.8,0,1.5-.2,2.2-.2,2.2-.3,4.3-.1,6.5.2,7.2.2,12.6,0,17.8-.2,3.8-.3,7.6,0,11.4,0,2.5.2,8.3.2,12.9,0,14.2.3,16.6,2,21.9.4,1,.7,2.1.9,3.1.4,1.4.9,2.7,1.4,4,2,5.1,2.9,6,5.9,6s1.6,0,2.2-.7c.7-.6.7-.8,1-3.8.3-4.2,0-8.5-.6-12.7-.6-3.2-.9-6.5-.9-9.7,0-2.3-.3-5.1-.5-6.4-.2-1.2-.4-3.4-.4-4.7s-.4-4.6-.7-7.2c-.6-4.5-.6-5.2-.5-12.5,0-4.3.2-9.5.4-11.6ZM238,119.4c.5,3.1.9,6,1.1,8.8.1,1.8.3,4,.4,4.8.1.8.3,3.2.4,5.3,0,3,.3,6.1.9,9.1.6,3.8.9,7.7.8,11.6,0,1.1-.2,2.4-.2,2.8,0,.4,0,.8-.2,1.1-.4.7-2.8.1-3.8-.9-.8-.9-2-4.1-4.1-11-1.6-5.3-1.9-8.5-1.8-20.9,0-4.6,0-8.5-.2-9.4-.4-2.3-.4-10.3,0-16,.3-4.6.4-9.1.1-13.7-.2-3.4-.2-6.8,0-10.2.1-.5.1-1.1,0-1.6,0-.7,0-1.5.3-2.2.2-1.1.4-2.2.5-3.4,0-.9.3-2.4.5-3.3.9-4.5,1-6.9,1.1-20.1,0-12,.4-23.4.7-24.5,0-.3.3-1.5.6-2.7.7-3.4,1.2-4.5,2.5-4.6h0c.6,0,1.1,0,1.6.2.9.1,1.8.6,2.4,1.3.7.6,1.1,1.6,1.1,2.5.1,1.2.2,2.4.2,3.6,0,1.2,0,2.4.2,3.5.2,2.5.4,5.1.3,7.7,0,0-.2,3.4-.3,7.5-.2,4.1-.4,8.2-.6,9.2-1,5-1.7,10.1-2.1,15.1-.4,4.8-.8,8.5-1.5,13.7-.3,1.9-.6,5.7-.7,8.5-.1,2.8-.3,6.5-.4,8.3-.2,3.5-.1,18.5,0,19.8Z"/>
        <path class="cls-1" d="M449.5,144.9c-.1-10.1-.4-14.9-1.2-17-.2-.6-.7-2.6-1.1-4.6s-.8-3.6-.8-3.7c-.2-.5-.3-.9-.3-1.4-.9-2.7-2-5.3-3.4-7.8-.3-.6-1.2-2.3-2-3.8-.7-1.4-1.5-2.8-2.4-4.1-1.8-2.2-3.8-4.2-6.1-6-.6-.4-1.7-1.2-2.3-1.7-2-1.7-4.2-3.2-6.4-4.5-1.7-.7-3.5-1.2-5.3-1.5-.4,0-.8-.1-1.2-.1h0c-.7,0-1.4.2-2.1.5-3.3,1.1-3.8,1.6-8,7-2.7,3.4-4.2,6.2-8,14.1-.5,1.1-1.1,2.1-1.8,3-1.4,2.2-2.6,4.5-3.4,7-.9,2.2-1.1,3.1-1.9,8.3-.3,2.2-.7,4.2-1.3,7.2s-.8,8.6-.8,21.1c0,3.2,0,6.8-.2,8-.1,1.4,0,2.9.2,4.2.2,1.2.5,3.6.7,5.3s.4,3.6.5,4.1c.9,3.8,1.8,7.2,2.1,8,.3.7.5,1.5.6,2.2.1.8.3,1.5.6,2.2.3.5.7,1.6,1,2.4.3.8,1.1,2.6,1.7,4s1.4,3,1.6,3.5c2.6,5.8,4,7.9,7.2,10.8,3.4,3,6,4.5,8,4.5,1,.2,2-.3,2.5-1.2,1.1-1.3,2.3-2.4,3.6-3.5,1.8-1.6,4.2-3.9,5.5-5.2,8.1-8.6,9.8-10.4,11.1-12.1.8-1,1.8-2.2,2.2-2.7,1-1,1.9-2.6,3.7-6.5.8-1.7,1.6-3.4,1.9-3.8.3-.4.5-.8.6-1.3,0-.3.5-1.5,1-2.5.6-1.6,1.1-3.3,1.3-5.1.2-1.7.6-4.3.9-5.7.7-4,1-6.3.8-7.7,0-.9,0-1.8.2-2.7.3-1.1.3-3.3.2-11.2ZM447.8,152.1c-.5,8.4-.7,11.6-.9,12.2-.2.6-.4,1.4-1.2,7-.5,3.4-.5,3.6-1.2,5.1-3.6,8.1-5.6,12.2-6.7,13.6-2.4,3.1-5,6.1-7.7,8.9-1.8,1.8-3.4,3.6-3.6,4-2,2.3-4.2,4.5-6.5,6.5-.6.5-2,1.8-3.2,2.9-2.6,2.6-3.1,2.7-4.9,1.6-1.7-1-3.4-2.1-4.9-3.4-1.5-1.5-2.8-3.2-4-5-.3-.6-.6-1.1-.9-1.6-.5-.8-.9-1.6-1.2-2.5-.3-.8-1.2-2.9-2-4.6s-1.7-3.7-2-4.5-.7-1.7-.9-2.1c-.3-.6-.5-1.3-.6-2-.2-.8-.4-1.7-.7-2.4-1.1-3.3-1.9-6.6-2.3-10-.2-2.5-.5-5-1-7.5-.3-1.2-.3-2.4-.1-3.6.1-1.3.3-5.9.4-10.4.2-12.7.4-15.4,1.3-20.4.5-2.3,1-5.4,1.2-6.8.7-4.7,2.5-9.1,5.2-13,.9-1.4,1.7-2.8,2.4-4.3,2.7-5.7,3.1-6.5,4.7-9,2.2-3.3,5.7-7.7,7-8.6.8-.5,1.7-.9,2.7-1.1.6-.2,1.1-.3,1.7-.3h0c.8,0,1.5.2,2.2.4,1.4.3,2.7.8,3.9,1.5,1.9,1.1,3.7,2.5,5.4,3.9.5.5,1.1.9,1.7,1.3,2.3,1.8,4.5,3.9,6.4,6.2.3.4,1.1,1.9,1.9,3.3s1.7,3.2,2.2,4.1c.3.6.6,1.2.8,1.9.3.8.6,1.5,1,2.3.5,1,1,2.1,1.3,3.2.3,1.6.8,3.8,1.8,7.8.6,2.3,1,4.6,1.1,7,.4,4.4.6,14.6.3,18.8Z"/>
        <path class="cls-1" d="M466.8,489.6c-.3-5.8-.6-11.1-.9-13.8-.1-1-.3-3.2-.5-4.7s-.3-3.4-.5-4.1-.3-4.3-.4-8-.2-8.5-.4-10.6-.3-6-.5-8.6-.3-6.1-.4-7.7c-.2-3.6,0-7.3.5-10.9.1-1.2.3-3.8.3-5.7,0-3,.5-6,1.5-8.8.8-2.2,1.9-4.2,3.2-6.2.4-.5,1.5-2,2.5-3.2.9-1.2,1.9-2.2,3-3.2.7-.5,2.3-1.8,3.7-2.9s3.1-2.5,3.9-3.1c6.5-4.7,13.1-11.3,15.3-15.3.3-.5.8-1.4,1.2-2,.8-1.3,1.4-3.6,1.9-7.1.4-2.5.4-2.9-.1-8.4-.3-3.2-.5-6.7-.5-8,0-1.6,0-3.1-.2-4.7-.2-1.4-.4-4.6-.5-7.1,0-2-.2-3.9-.5-5.9-.2-1-.3-7.1-.3-24.2,0-20.6-.3-32.3-.6-32.9,0-.1,0-2.4,0-5,.1-2.9.1-5.7,0-8.6-.3-4.4.2-11.3,1-13.8.7-2.2,3-4.3,4.9-4.3,1.4,0,2.5-.3,5.3-1.7,1.3-.7,3.1-1.4,3.8-1.7,2.9-1.1,5.7-2.5,8.4-4,4.8-3.1,8-6.9,9.2-11,.2-.9.6-1.7.9-2.5,1-2,1.8-7.8,1.7-11.9,0-.4,0-2.9,0-5.5,0-5.3-.9-18.1-1.3-19.2-.2-1.1-.3-2.3-.3-3.4-.2-3.4-.6-7.1-.9-9.1-.4-2.4-.9-6.9-1.2-10.4-.1-1.9-.4-4.7-.5-6.2s-.3-4.4-.4-6.3c-.1-1.9-.3-5.1-.5-7.1-.4-5.1-.5-10.1-.3-15.2.2-3.1.3-3.5,1.1-5.5,1.4-3.1,3.1-6.1,5.2-8.7,1.8-2.5,4.1-4.6,6.9-5.9.7-.4,2-1.1,2.7-1.6,1.1-.7,2.3-1.3,3.6-1.7v-2c-1.4.4-2.8,1-4.1,1.9-.3.2-1.5.9-2.5,1.4-1.1.6-2.2,1.3-3.3,2.1-.7.6-1.7,1.4-2.1,1.7-1.8,2.1-3.4,4.3-4.8,6.7-.2.4-.5.9-.8,1.3-1.1,1.7-2,3.4-2.7,5.3-.4,1.4-.7,2.8-.7,4.3-.3,4.8-.3,9.6,0,14.4.5,3.3.8,6.5.8,9.8,0,.7,0,1.4.1,2.1.2,1.4.4,2.7.5,4.1.5,7.4.7,9.7.8,10,.1.3.6,3.5,1.3,9,.1.8.3,2.9.3,4.6,0,1.6.2,3.2.5,4.7.6,3.3,1.1,11.4,1.2,19.6,0,8.4,0,10.9-.7,13.2-.8,2.8-1.8,5.6-2.9,8.4-1.1,1.8-2.5,3.5-4.1,4.8-.6.5-1.5,1.2-2,1.6-3.3,2-6.7,3.7-10.2,5.1-.8.3-1.7.7-2.5,1.1-1.5.9-3.2,1.5-5,1.8-1.7,0-3.4.7-4.6,2-1.4,1.2-2.2,2.9-2.4,4.7,0,.8-.3,2.3-.4,3.3-.7,5.1-.8,6.4-.5,7.9.2,2.9.3,5.9.2,8.8,0,4,0,9.9.2,13s.3,7.7.2,10.3,0,9.9,0,16.4c0,7.2,0,12.9-.2,14.6-.2,2-.2,4.1.1,6.1.2,1.9.4,3.7.5,4.1s.2,2.7.3,5.1.3,5.9.4,7.7.3,4.4.4,5.8.2,3.5.3,4.8.1,4.5.1,7.1c0,4.3,0,4.8-.5,6-.2.5-.4,1.1-.5,1.6-.2.6-.5,1.1-.8,1.7-.5.7-1.4,2.3-2.2,3.4-2.2,3.5-7.8,8.9-13.3,12.9-1,.7-2.3,1.7-2.7,2.1s-2.3,1.9-4.1,3.3c-1.7,1.3-3.3,2.8-4.6,4.4-.8,1-1.8,2.4-2.4,3.1-.9,1.1-1.8,2.8-3.3,6.2-1,3-1.6,6.1-1.6,9.3,0,1.5-.2,3.9-.4,5.4s-.3,3.6-.3,4.6c0,.9,0,1.7-.2,2.6,0,3.9.2,7.8.5,11.7.1,1.6.3,4.8.4,7s.2,4.1.2,4.2c0,.1.4,13.1.4,14.8,0,.3.1,1.6.3,2.8s.4,3.8.6,5.7c.3,4.1.7,9.2.8,9.4,0,0,.1,1.8.2,3.8s.4,6,.6,9c.3,2.9.5,5.6.6,8.2h1.6c-.2-2.4-.4-4.6-.5-6.2-.2-1.7-.4-5.4-.6-8.1Z"/>
        <path class="cls-1" d="M507.1,487.8c-.3-1-.3-3.3-.3-14.8,0-7.5,0-13.7-.1-13.9-.2-2.4-.2-4.7.1-7.1.3-1.4.4-20.5.1-21.8,0-.9,0-1.8.3-2.7.2-1.1.5-2.5.6-3.1s.5-2.4.8-4,.8-3.8,1-5.1c.4-2.6,1.1-5.2,1.8-7.7.6-2.1,1.1-4.3,1.5-6.5.3-1.3.6-2.6,1-3.9.7-1.9,1.4-3.9,2-6.1.3-1,.7-2.3.8-2.9.2-.7.3-1.5.3-2.3,0-1.3.2-2.6.5-3.8.5-2.4.5-3.2.5-11.3s-.1-10.4-.3-12.5c-.4-5.1-.7-11.5-.9-20.2-.1-4-.3-8.8-.5-10.7-.2-3.5-.2-6.9,0-10.4.3-9.8.3-10.1-.5-23.2-.3-5.5-.2-11,0-16.5.2-2.5.4-6.1.5-8,.1-3.4.8-6.8,1.9-10,.4-1,1-2.8,1.3-3.8.8-2.7,1.6-4.1,2.9-5.3,2.8-2.1,5.8-4,9-5.6,4.2-2.1,9.7-4.7,10.3-4.9.6-.2,1.2-.5,1.7-.8.6-.3,2.1-.9,3.3-1.4v-2c-1.7.6-3.1,1.2-10.1,4.4-3.8,1.6-7.5,3.5-11,5.7-5.1,3.1-6.2,4.4-7.6,9.3-.4,1.4-1,3.2-1.3,4-1.1,2.8-1.6,5.6-1.9,11.1-.1,2.2-.4,5.9-.5,8.1-.4,6.6-.3,10.1.3,22.4.3,5.3.3,5,.2,18.4,0,6.6,0,9.8.2,10.8.2.9.3,4.4.4,8.5,0,3.9.2,7.2.2,7.3.2,1.3.2,2.6.2,4,0,2.1.2,5.1.3,6.8.7,9.1.7,21.3,0,25.4-.2,1-.4,2.6-.5,3.6-.1,1.4-.7,3.4-2.1,7.9-1.1,3.3-2,6.4-2.1,6.9-.3,1.7-1.3,6.3-1.8,8-.7,2.4-1.3,4.9-1.6,7.4,0,.7-.2,1.4-.4,2-.2.7-.4,1.5-.5,2.3-.4,1.9-.7,3.7-1.2,6.5-.4,1.9-.4,5.4-.2,22.8,0,1.1-.1,2.2-.3,3.3-.2,1.2-.3,2.4-.3,3.7,0,1.1,0,8.6.1,16.5.1,12,.2,14.8.5,15.9.4,1.6.5,4.6.4,11.5,0,1.3,0,2.6,0,3.9h2.1c-.1-1.9-.2-3.7-.2-5.6-.1-7.5-.2-9-.7-10.5Z"/>
        <path class="cls-1" d="M434.8,131.9c-.8-7.5-1.5-10-3.8-13.4-.5-.8-1-1.6-1.5-2.4-1.1-1.8-2.6-3.4-4.4-4.6-1.8-1.4-4-2.2-6.2-2.2h0c-.6,0-1.1,0-1.7.1-2.1,0-4.1.9-5.7,2.4-1.8,1.5-2.2,2-3.4,5.2-.5,1.6-.9,3.2-1.2,4.8-.4,2-.8,3.9-.9,4.2-.2,1.6-.4,3.1-.4,4.7,0,2.2-.3,5-.5,6.2-.2,1.4-.4,2.9-.4,4.4,0,2-.3,4.4-.8,10.2-.4,3.1-.6,6.2-.7,9.3,0,4.3.2,8.7.8,13,1.3,5.7,2.4,9,4.1,11.6,4.1,6.6,7.1,8,12.5,5.8,1.8-.7,3.8-2.1,7-4.9,2.4-2.1,5.8-8.1,6.7-11.9.7-2.7.9-4.9,1.2-11.8.1-3.2.3-6.8.4-8,.3-5.7.2-11.5-.4-17.2-.1-.7-.5-3.3-.7-5.7ZM434.3,152.5c-.1,1.6-.3,5-.3,7.7-.3,9.2-1.1,14.3-2.9,18-1.6,3.3-3.4,6-4.2,6.3-.5.2-.9.5-1.2,1-1.9,1.8-4.1,3.4-6.4,4.5-1.6.9-3.5.9-5.1,0-1.4-.7-2.2-1.6-4.1-4.6-2.4-3.7-3.1-5.8-4.6-12.7-1-4.9-.8-13.4.6-27.1.2-1.8.4-4.1.5-5.2,0-1.1.2-2.6.4-3.3.2-1.7.3-3.5.2-5.2,0-1.9,0-3.7.5-5.5.2-.9.7-2.8,1-4.3.8-3.8,1.8-6.7,2.7-7.6.7-.6,1.3-1.2,2.1-1.8,1.3-1,2.9-1.5,4.5-1.5h0c3,0,5.8,1.1,7.9,3.2,1.1,1.1,1.7,2.1,4.6,6.6.7,1.3,1.2,2.7,1.5,4.2.9,3.9,1.2,6.2,2.1,16,.3,3.8.4,7.6.2,11.4Z"/>
        <path class="cls-1" d="M79.6,225.1c-.2,1.6-.5,3.9-.6,5s-.3,3.8-.3,5.9-.2,4.5-.2,5.2,0,3.7.1,6.7c.3,5.7.9,10.5,1.7,12.5.3.7.4,1.5.4,2.2,0,1.1.3,2.2.6,3.2,1.2,4.3,1.8,6.4,2.1,8,.5,2.8.9,4.9,1.3,7.1.2,1.2.5,2.3,1,3.4.3.7.9,2.4,1.4,3.7.4,1.4,1,2.6,1.9,3.8.8,1.1,1.5,2.2,2.1,3.4.5,1.1,1.1,2.4,1.4,2.7s.8,1.9,1.3,3.3,1.4,3.5,2,4.7c.5,1.1,1,2.2,1.4,3.3.3.9.7,1.7,1.1,2.5.3.5.6,1,.8,1.5,0,.5,2.2,3.5,3.3,4.6,1.8,1.7,4.7,3.1,6.3,3.1.8.1,1.6-.2,2-.9,1-1.1,1.7-2.4,1.9-3.8.9-3.3,1.9-6.5,3.2-9.7.4-.7,1-2.2,1.4-3.2.4-1.1,1-2.2,1.6-3.3,1-1.8,1.9-3.6,2.4-5.6.7-2,1.5-4,2.4-5.9.8-1.7,2.7-6.1,2.7-6.3.1-.5.3-1,.6-1.4.7-1.5,2.6-6.9,3.1-8.7.2-.7.6-2,1-2.9,1.8-4.8,3.4-9.7,4.5-14.6.5-2.1,1-4.4,1.2-5.1.6-2.5.9-5.1,1-7.7.2-2.8,0-5.6-.3-8.4-.3-4.7-.3-9.4,0-14.2.2-1.1.5-19.3.4-22.9,0-1.6-.3-5.5-.6-8.6s-.7-6.8-.8-8.3c0-1.2-.3-2.4-.5-3.5-.1-.5-.4-1.7-.6-2.6s-.5-2.1-.7-2.7c-.2-.7-.4-1.4-.5-2.1-.8-3-1.7-6-2.8-8.9-.2-.4-.6-1.7-1-2.8-.6-2.3-1.7-4.4-3-6.3-1.5-2.1-3.6-5.4-4.9-7.7-.6-.9-1.3-2.2-1.7-2.9s-1.1-1.8-1.6-2.6c-1.5-2.4-4.7-6.6-5.5-7.2-1.3-.7-2.7-1.2-4.1-1.3-.4,0-.9-.1-1.3-.2h0c-.6,0-1.1.2-1.6.5-1.6.9-2.9,2.2-3.9,3.8-.5.7-1,1.4-1.5,2-3,4.2-5.7,8.7-8.1,13.3-.5,1.1-.9,2.3-1.1,3.5-.2,1-.7,2.8-1.1,4s-.8,2.7-.9,3.4c-.2.9-.4,1.8-.7,2.6-1.1,2.5-1.9,5.1-2.4,7.8,0,.8-.2,1.6-.4,2.3-.2,1.1-.3,2.1-.4,3.2-.2,2.6-.7,5.2-1.5,7.8-.3.8-.6,2-.8,2.8s-.6,2.2-.9,3.2c-.3,1-.5,2.1-.7,3.2,0,.8-.3,2.1-.5,3-.2.8-.3,1.6-.3,2.5,0,.5-.1,1-.4,1.4-.3.4-.3,1.8-.3,10.1,0,6.9,0,10.1-.2,11.3-.2.9-.5,3-.6,4.6ZM80.6,230.3c.1-1.5.4-4.1.7-5.9.5-2.9.8-5.8,1-8.7,0-.6,0-4.1-.1-7.8-.1-5.3,0-7.1.2-8.3.4-1.6.6-3.1,1.2-6.5.5-2.6,1.1-5.1,1.8-7.6.5-.8,1.6-6.3,2.1-10,.8-6.3,1.1-7.8,2.9-12.9.4-1.1,1-3.1,1.3-4.5.2-1,.5-1.9.8-2.8.2-.7.4-1.5.6-2.2.6-2.9,1.8-5.7,3.6-8.1.8-1.2,1.5-2.4,2.2-3.7.9-1.8,2-3.5,3.3-5,.5-.6,1-1.3,1.5-2,.8-1.2,1.7-2.3,2.8-3.2.6-.4,1.3-.6,1.9-.6h0c1.7,0,3.4.7,4.6,1.9,1.6,2,3.1,4.1,4.4,6.2.5.9,1.4,2.2,1.9,3.1.4.5.7,1.1,1,1.7.1.4.3.7.5,1,1.9,3,2.9,4.4,4.1,6.2,2.1,3,2.1,2.9,4.8,10.5,1.3,3.4,2.3,6.8,3,10.3.3,1.5.7,3.3.9,3.9.5,1.5,1.2,7.3,1.9,16.6.1,1.7.2,7.1.2,12.4,0,11.6,0,11.8-.4,15.7-.1,1.3-.2,2.6-.2,3.9,0,.4.2,2.7.2,5.1s.1,4.8.2,5.4c.4,4.1.3,8.3-.3,12.3-.2,1-.7,3.3-1.2,5.3s-.9,4-1,4.5c-.1,1-1.8,6.2-3.6,11.2-.5,1.5-1.4,4-1.9,5.7-1.3,3.9-2.8,7.8-4.4,11.6-.8,1.8-1.9,4.4-2.4,5.8-2.7,6.8-3.1,7.8-3.4,8.2-2.3,4.3-4.1,8.7-5.6,13.3-.9,2.8-1.4,4-1.8,4.3-.4.5-.7,1-.9,1.6-.4,1.4-.8,1.5-2.5.7-2.1-1-3.9-2.6-5.1-4.7-1.1-1.6-2-3.3-2.7-5.1-.5-1.3-1-2.6-1.6-3.8-.9-1.9-2-4.4-2.3-5.5-.4-1.1-.9-2.3-1.5-3.3-.4-.8-.8-1.6-1.2-2.4-.4-.8-.9-1.6-1.4-2.3-1.2-1.5-1.5-1.9-2.3-4.5-.3-1-.7-2-1.1-2.9-.7-1.6-1.2-3.3-1.3-5.1,0-.8-.2-1.5-.4-2.2-.2-.8-.5-2.1-.7-3.1-.5-2.7-1.2-5.4-2-8.1-.4-1.4-2.2-4.4-2.4-5.8,0-.8,1.2.1,1-.7-.6-1.1-1.2-6.2-1.5-11.8,0-1,0-2-.2-3-.1-.2.3-10.8.6-14.2Z"/>
        <path class="cls-1" d="M421.2,130.8c-1.1-.5-2.2-.8-3.4-.8h0c-.5,0-1,0-1.4.2-1.7.6-2.5,2.8-3.4,9.1-1.2,8.6-1.2,19,0,21.5.3.6.5,1.2.6,1.8.1.6.4,1.2.8,1.7.3.4.9,1.2,1.3,1.6.9,1.3,2.5,2,4,1.8,2.5-.2,4.2-1.4,4.8-3.3.3-1,.3-1.3.1-1.8-.3-.6-.3-.7.3-8.6.1-1.8.3-4.9.3-7.1,0-1.3,0-2.7.3-4,0-1.7,0-3.5-.3-5.2-.4-2.8-2.1-5.8-4-6.9ZM422.9,160.8c-.1,1.2-.3,2.5-.3,3s0,.9,0,1c0,.3-1.9,1.1-2.9,1.3-1.3.2-1.8,0-3-1.7-1.6-2.4-2.5-5.1-2.7-8-.2-4.4,0-8.8.5-13.2.1-.9.4-2.9.6-4.4.6-5.1,1.6-7.2,3.3-7.2h0c.3,0,.5,0,.8.1,1.5.5,2.7,1.7,3.8,3.9l1,2v3.4c0,5.2-.4,15.9-.9,19.7Z"/>
        <path class="cls-1" d="M538.5,140.1c-.8,2.8-1.1,15.1-.6,24,1,18.1,1.1,18.9,1.7,22,.5,2.5.9,4.6,1.9,10.5.5,3,1.1,4.2,2.4,5.1,1,.6,1.9.9,2.6.7v-2c-.2.2-.4.4-.6.4-1.3,0-2.7-1.8-2.8-3.5,0-.6-.2-1.2-.4-1.8-.2-.7-.3-1.4-.3-2.1,0-.9-.2-1.8-.5-2.6-.3-.9-.6-2.6-.8-3.7s-.5-2.7-.7-3.5c-.3-2.1-.4-4.3-.4-6.4,0-2.7-.2-5-.3-5.1-.3-.5-.6-10-.6-17.3,0-8.6.3-12.7.9-14.2.4-.8.6-1,1.6-1.4.6-.2,1.3-.3,1.9-.3,0,0,.1,0,.2,0,.9,0,1,.2,1.5,1.1.6,1.2.9,2,1.1,3.4v-5c-.4-.7-.8-1.2-1.2-1.4-.3-.1-.6-.2-.9-.1h0c-.6,0-1.1.1-1.7.2-3.1.6-3.7,1-4.3,3.2Z"/>
        <path class="cls-1" d="M95.6,259.1c.3,1.1.6,3,.8,4.2.3,2.6.9,5.2,1.8,7.7.3.8.6,1.6.9,2.5.2.6.5,1.1.9,1.6.8,1.2,1.6,2.4,2.2,3.7,1.3,2.2,3,4.1,5,5.7.7.4,1.4.7,2.2.9.7.2,1.5,0,2.1-.4,1.5-1,2.3-3.1,3.8-10.3.2-1,.9-3.5,1.5-5.5s1.4-4.6,1.7-5.5.8-2.8,1.2-4.1,1.1-3.6,1.7-5.1c.7-1.7,1.1-3.6,1.2-5.4.1-1.5.3-3.1.4-3.6.2-4.1.1-8.1-.2-12.2,0-1,0-2,0-3.1.3-1.7.4-17.4.2-23.2-.8-21.6-1.2-27.5-2.6-35.5-.3-1.8-.6-3.8-.7-4.5-.4-2.4-1.2-4.7-2.1-7-.5-.9-1-1.8-1.6-2.6-.5-.8-1.2-1.7-1.4-2.1-.9-1.8-2-2.6-3.5-2.6h0c-.6,0-1.1.2-1.7.3-1,.3-1.9.8-2.5,1.6-.6.7-1.1,1.5-1.4,2.3-.2.6-.6,1.8-.9,2.5-1.3,4.3-2.3,8.8-2.9,13.2-.1,1.4-.3,3.1-.5,3.8s-.3,3.3-.4,5.7-.2,5.1-.4,6-.3,2.8-.4,4.1-.4,3.3-.6,4.4-.5,2.7-.6,3.7-.4,2.6-.7,3.7c-.2.9-.4,1.8-.4,2.7,0,.9-.8,7.3-1.3,10.5-.5,3.4-.8,6.8-.9,10.3,0,1.5-.2,5-.3,7.9-.3,6.7-.4,16.1-.2,19.2.1,1.5.3,3,.7,4.5ZM96.6,245.8c0-3.4.1-7.7.2-9.4s.2-5.2.2-7.7.3-6,.6-7.9c1-7.4,1.1-8.6,1.4-9.6.2-1.2.3-2.4.4-3.5,0-1.4.3-2.8.6-4.2.2-.8.4-1.6.4-2.4,0-1,.2-1.9.5-2.9,1-5.1,1.5-10.4,1.5-15.6,0-4.8.6-9.6,1.5-14.4.7-3.6,2.9-10.9,3.8-12.2.8-1,1.9-1.6,3.1-1.7h0c.8,0,1.2.4,2.2,2,.3.5,1.1,1.7,1.7,2.6.5.8,1,1.6,1.4,2.5.8,2,1.3,4,1.8,6.1.1.9.3,1.8.5,2.7.3,1.2.6,2.7.7,3.4.2,1.3.9,7.4,1.1,9.7,0,.8.2,3.5.4,6s.3,6.2.3,8.2c0,1.6,0,3.2.2,4.9.3,1.7.3,14.3,0,23.8-.2,6.1-.2,8.4,0,9.6.4,3.6.4,7.2,0,10.8-.2,1.5-.5,3.5-.6,4.4-.2,1.3-.6,2.6-1.1,3.9-.5,1.4-.9,2.8-1.3,4.2-.3,1.1-.7,2.8-1,3.8s-.8,2.5-1,3.3-.8,2.6-1.3,3.9c-.5,1.5-.9,3-1.2,4.5-.5,3.2-1.9,7.6-2.5,8.5-.3.5-.9.9-1.5.8-.6,0-1.1-.2-1.6-.6-1.6-1.4-3-3-4.1-4.9-.3-.6-1-2-1.7-3.1-2.1-3.6-2.9-6.2-4.5-14.9-.9-4.7-1.2-9.6-1-14.4Z"/>
        <path class="cls-1" d="M110.8,239.7c1.2,0,1.3-.2,1.6-5.7.2-2.8.4-5.6.5-6.2s.4-3.9.6-7.2.4-7.2.5-8.6c.2-2.1.1-4.3-.3-6.4-.8-4.8-.8-4.9-1.7-5.8-.5-.6-1.2-1-2-1h0c-.9,0-1.7.7-1.9,1.6-.2.6-.5,1.5-.7,2.1-.2.7-.3,1.4-.4,2.1,0,.8-.1,1.7-.3,2.5-.2,1.3-.4,2.7-.5,4,0,1.4-.3,3.3-.4,4.2-.4,2.6-.7,9-.8,14.4,0,4,0,5.1.2,5.8.6,1.4,4.2,4.2,5.6,4.2ZM107.7,213.3c1-9.9,1.3-11.5,2-12.4.2-.2.3-.3.4-.3h0c.1,0,.3.2.5.5.4.5.6,1.1.7,1.8,0,.6.3,2,.5,3.1.4,3,.6,6,.3,9,0,1-.3,3.7-.3,6s-.3,5.2-.5,6.3-.4,3.7-.6,5.7-.3,3.9-.4,4.1c-.2.5-.6.5-1.6-.3-1.5-1.1-1.8-1.5-1.9-3.2-.2-2.4.3-14.5.9-20.2Z"/>
        <polygon class="cls-1" points="346.7 200.1 346.7 200.1 346.7 200.1 346.7 200.1"/>
        <path class="cls-1" d="M345,201.9c-.6.9-1,2.1-1,3.2.1,3.6.6,7.2,1.2,10.8.4,1.8.7,3.6.8,5.4.1,2.4.6,4.8,1.2,7.2,1.6,3.7,3.7,7.3,6.2,10.5,1.6,1.9,4.4,4.6,5.3,4.9,1.3.5,2.7.6,4,.5.4-.2.5-.5.5-3.6,0-2.4-.2-4.9-.9-7.2-.5-2.1-1.1-4.5-1.4-5.2s-.7-2.5-1.1-3.8c-1.1-3.7-2.4-7.3-4.1-10.8-.8-1.7-1.5-3.4-2-5.2-1.2-3.7-3.2-6.4-5.7-7.9-.4-.3-.9-.5-1.3-.5-.6,0-1,.5-1.7,1.7ZM346.7,202.3s0,0,0,0h0s0,0,0,0c.7,0,3.2,2.5,3.9,3.9.2.3.6,1.4.9,2.3,1.5,3.9,2.2,5.6,3.3,8.1.7,1.5,1.2,2.7,1.2,2.8s.4,1.1.8,2.3c.5,1.4,1,2.8,1.3,4.3.2,1,.5,2.1.8,3.1.2.5.8,2.7,1.4,5,.6,2,1,4.2,1,6.3,0,1.5,0,2.2-.3,2.3-1.1,0-2.2-.3-3-1-1.9-1.7-3.6-3.6-5-5.7-.3-.5-.6-1-1-1.5-1.3-2-2.4-4.1-3.3-6.3-.7-1.7-.9-2.7-1.3-6.2-.3-2.3-.6-5.2-.8-6.3-.6-2.9-1-5.9-1.2-8.9-.1-1.9,0-2.3.4-3.2.2-.4.4-.9.7-1.2Z"/>
        <path class="cls-1" d="M39.1,219.1c-.7.5-2.2,1.6-3.4,2.6s-2.8,2.2-3.6,2.8-2.1,1.6-2.9,2.3-1.8,1.4-2.2,1.7c-1.9,1.3-6.1,5.9-7.9,8.9-.8,1.2-1.7,2.4-2.6,3.4-4.1,4.7-4.7,5.6-10.1,13.7-.8,1.2-2,3-2.7,4-.5.6-.9,1.3-1.3,2-.3,1-.7,1.9-1.1,2.9-.5,1.1-.9,2.2-1.2,3.3v5.1c.6-1.3,1.1-2.6,1.4-3.9.8-3.5,2.3-6.8,4.4-9.8.7-1,2.3-3.4,3.6-5.2,2.6-4.1,5.5-7.9,8.8-11.4.8-.9,1.5-1.8,2.1-2.8,2.1-3.6,4.9-6.7,8.3-9.2,1-.8,2.3-1.8,2.8-2.2s1.3-1.1,1.9-1.5c1.2-.9,4.9-3.8,6.2-4.8.5-.4,1.1-.8,1.7-1.2.7-.4,1.4-.9,2-1.5,1.1-1.1,2.6-1.8,4.2-1.9h0c0,0,.2,0,.3,0,.7,0,1.4.2,2,.5,1.2.6,1.6,1.1,1.9,2.8.1.7.2,1.3.2,1.3s-.2.7-.3,1.5c-.5,2.1-1.2,4.1-2.1,6-1.4,2.4-3.1,4.6-4.9,6.6-1.2,1.3-3,3.3-4,4.4-1.3,1.5-2.5,3-3.6,4.7-1,1.5-2.2,3.2-2.7,3.8-1.4,1.5-2.5,3.2-3.3,5.1-.5,1.1-1,2.2-1.2,2.5-.4.9-.7,1.8-1,2.7-.3,1.1-.7,2.1-1.1,3.2-.4,1-.7,2-1,3.1-.2,1-.5,2-.8,2.9-.2.7-.4,1.3-.6,2-.1.6-.5,2.4-.8,3.9-.7,3-.8,4.8-1.4,12.9-.3,3.3-.3,6.7-.1,10,.4,7.7.7,12.8.8,15.9,0,1.7.2,3.7.3,4.5.4,2.3,1.3,10.2,1.6,12.9.1,1.4.4,3.8.5,5.3s.5,4.4.7,6.3c.4,2.9.5,4.9.6,13,.1,10.5,0,13.9-1,17.9-.3,1.4-.7,3-.8,3.5-1.7,7.8-3.2,13-4.9,16.8-.5.9-.8,1.9-1.1,2.8-.2.7-.4,1.4-.7,2.1-1.8,4.8-3.6,8-5.2,9.1-.6.5-1.5.8-2.3.7-1.1,0-1.6-.2-3.8-1.5-2.7-1.6-4.5-3.4-5.1-5.1-.3-.8-.6-1.5-1-2.2-.5-.9-.8-1.8-1-2.7,0-.3-.2-.7-.3-1v5.1c.3.6.7,1.3,1,1.9,1.1,2.2,2.8,4,4.9,5.2.8.4,2.1,1.1,2.8,1.4,1.9,1.1,4.3.9,6-.5.4-.4.9-.7,1.4-.9.7-.3,1.4-1.4,2-3.4.3-1,.7-2,1.1-2.9.3-.7,1-2.4,1.5-3.8s1.4-3.7,2.1-5.2c1.4-3.1,1.9-4.9,3.4-10.9,2.9-11.8,3-12.7,2.9-23.9,0-9.6-.1-12.1-.5-13.4-.2-1.3-.4-2.6-.5-3.9-.2-2.8-.4-4.7-1.4-13.2-.2-2.1-.6-5-.7-6.2,0-1-.3-2.1-.5-3.1-.1-.4-.3-3.3-.5-6.4-.3-8.1-.4-9.4-.7-11.9-.4-3.9-.3-8.3.5-18.2.2-2.6.6-5.2,1.3-7.8,1.5-6.3,2.4-9.6,2.9-10.5.4-.9.8-1.8,1-2.8,1-3.2,2.4-6.2,4.3-9,.5-.6.9-1.2,1.5-1.7.5-.5.9-1.1,1.2-1.7,1.6-2.5,3.3-4.8,5.2-7,4.7-5.2,5.9-6.5,7.1-8.4,2.1-3.1,2.4-3.7,2.6-4.8.1-.6.3-1.1.6-1.6.4-.7.6-1.4.6-2.1.6-5.3-1.2-8-5.5-8-2.1,0-2.9.3-5.3,2.1-1,.8-2.4,1.8-3.1,2.3Z"/>
        <polygon class="cls-1" points="47.5 214.7 47.5 214.7 47.5 214.7 47.5 214.7"/>
        <path class="cls-1" d="M476,219.1c-1.2,1.2-2.2,2.5-3,4.1-.4.7-1,1.7-1.3,2.2s-.7,1.3-.9,1.6c-1.1,1.7-2.2,3.2-3.5,4.8-.8,1-1.5,2.1-2.2,3.2-1.1,2-2.4,3.8-4,5.6-1,1.2-2.4,3.1-3.2,4.2s-2.1,3.1-3,4.3c-3.5,5.1-4.9,9.1-6.6,18.2-.7,4.1-.3,28.1.6,39.8,1.1,13.1,1.5,16.6,2.1,20.9.2,1.5.5,3.9.7,5.4s.4,3.5.5,4.5.3,2.7.4,3.8.4,3.3.6,5c.5,4.1.8,8.6,1,15.1.1,3,.4,7,.6,8.9.6,4,.9,8,1,12.1,0,1.1,0,2.1.1,3.2.4.2.8.4,1.2.5,1.9.7,3.1.5,8.5-1.4,2.4-.7,4.6-2,6.4-3.7,2.5-2.4,5.1-4.6,7.8-6.6,2-1.4,3.7-3.1,5.2-5.1.7-.9,1.3-1.9,1.7-2.9.2-.8.7-2.1,1-2.9.9-2.5,1.5-7.5,1.5-14.4,0-2.5.1-5.3.2-6.1h0c.3-2.2.3-4.3,0-6.5-.1-.6-.3-5.9-.4-11.7s-.3-13.9-.5-18.1c-.1-4.7-.1-8.5,0-9.9.4-3.8.5-19.3.2-26.5-.4-10.6-.8-16-1.6-19.8-.6-3.2-1-6.4-1.2-9.7,0-1.3-.2-2.5-.5-3.8-.4-2.7-.6-5.5-.6-8.3,0-1.2,0-2.4-.1-3.6-.2-3.2-.3-3.5-1-5-1-2-1.8-2.7-3.3-2.9-.3,0-.6,0-.9,0h0c-1.4.1-2.8.9-3.7,2ZM479.1,218.9c.2,0,.4-.1.5-.1h0c.9,0,1.8.5,2.3,1.3,1,1.4,1.3,3.5,1.4,9.4.5,7.7,1.3,15.3,2.6,22.9.3,1.4.5,2.8.6,4.1,0,.8,0,1.6.2,2.4.1.7.3,2.8.3,4.6s.2,6.1.4,9.5.2,7.6.2,9.2-.2,5.1-.2,7.6-.2,5.9-.3,7.6-.1,3.2-.1,3.4,0,2.8.2,5.5.2,7.8.3,11.1.2,8.3.2,11.2.2,5.8.3,6.6c.3,2.1.3,4.2,0,6.3-.1,1-.2,4.4-.3,7.6s-.2,6.3-.4,6.9c-.1.7-.2,1.4-.2,2.1-.4,2.9-1.1,5.7-2.2,8.4-.4,1-1,1.9-1.8,2.7-.1,0-.4.3-.6.7-1.4,1.6-3.1,3-4.8,4.1-1.9,1.5-3.7,3.1-5.4,4.7-1.7,1.8-3.7,3.2-6,4.2-5.9,2.2-7.1,2.5-8.1,1.9-.5-.4-.6-.5-.7-3.3-.1-3.6-.5-8.8-1-12.7-.2-1.6-.4-5.1-.4-7.7-.1-5.3-.6-10.6-1.3-15.9-.3-2-.7-5.7-.9-8.3-.7-6.7-.9-8.6-1.3-11.1-.6-3.8-1.2-10.1-1.7-18.2-.1-2-.3-4.6-.5-5.8-.3-2.6-.4-5.3-.6-18.6-.2-11.9,0-15.1,1-19,.4-1.4.9-3.3,1.1-4.3,1.1-4.3,3.1-8.3,5.8-11.8.6-.7,1.5-2.1,2.2-3.1.9-1.3,1.8-2.5,2.8-3.6,1.7-1.9,3.2-4,4.4-6.3.9-1.4,1.8-2.7,2.8-3.9,1.9-2.4,3.6-5,5-7.7.5-1.2,1.3-2.3,2.3-3.1.6-.6,1.3-1.1,2-1.5Z"/>
        <path class="cls-1" d="M242.6,499c-.1-.7-.4-3.4-.6-5.9s-.4-4.7-.5-4.7-.3-2.1-.5-4.5c-.4-4-.6-6.6-1.2-19.2-.1-2.6-.4-5.9-.6-7.3s-.5-4.6-.6-7-.4-5.3-.5-6.5-.4-5.8-.6-10.4c-.3-4.8-.3-9.6-.1-14.4.1-3.4.4-18.9.5-34.6.2-29.7.3-30.8,1.4-40.4.1-.8.2-1.6.2-2.4,0-.1,0-2.2.2-4.6s.4-7.5.5-11.3.3-8.6.5-10.5c.4-5.2.2-8.5-.7-11.3-1.8-4.9-3.9-9.7-6.4-14.3-4.3-7.7-4.9-9.2-6-13-1.4-4.8-1.8-7.9-2.7-20.3-.1-1.7-.3-6.3-.3-10.1-.1-7.6-.4-9.9-1.4-12.7-.8-2.2-2-4.2-3.6-5.8-2.1-2.2-2.5-2.5-5.1-2.7-.6,0-1,0-1.4,0h0c-1,0-1.9.3-2.7.9-.8.8-1.5,1.8-2,2.8-.8,1.2-1,3.5-.7,7.6.1,2.1.3,6.5.4,9.9.1,9.1.6,15.3,1.3,19.6.1.8.3,2.5.4,3.9.5,6.2.9,9.1,1.6,10.4.3.8.6,1.6.8,2.4.3,1.1.9,3,1.4,4.2s1.1,3.3,1.5,4.6.9,3,1.2,3.8.7,2,.8,2.7c.2.7.4,1.4.7,2,.9,2.6,1.6,5.3,2.2,8,.2.8.4,1.7.7,2.5.4,1.3.6,2.6.8,4,0,1,.3,2,.5,3,.2.6.4,1.2.4,1.9.1.9.3,1.7.5,2.6.4,1.2.6,2.4,1.1,7.5.4,7.5.3,15,0,22.5-.1,1-.4,3.3-.5,5s-.3,3.4-.4,3.9c-.1.8-.2,1.7-.2,2.5,0,.9-.2,3.1-.3,5s-.3,4.2-.4,5.3c0,.9-.2,1.9-.4,2.8-.3.9-.4,1.9-.9,11.5-.1,2.2-.3,4.5-.4,5.2-.2,1.4-.2,2.8-.2,4.2,0,3.4-.6,15.5-.9,18.3-.2,2.8-.1,5.6.3,8.4.6,3.7.8,7.4.6,11.1,0,1.6,0,4.3,0,6.1,0,1.2.1,2.3,0,3.5,0,1.1,0,2.1.1,3.2.4,5.2.6,13,.8,31.1,0,6.4,0,12,0,12.5,0,.8,0,1.5,0,2.3.1.8.2,2.8.2,4.6,0,1.4,0,2.7.2,4.1.1.6.2,1.3.2,2h1.8c0-.7-.2-1.4-.3-2.2-.3-1.2-.4-4.3-.5-22.5,0-11.6-.2-21.4-.2-21.8s-.2-2.5-.2-4.7-.2-4.4-.3-5-.2-4.8-.1-9.6c0-9.2-.2-13.8-.7-15.7-.3-1.6-.4-3.3-.3-5,0-3.5.2-5.6.8-14,.1-1.8.3-4.9.3-7,0-3.5.2-5.7.8-12.2.1-1.4.3-3.7.4-5.2,0-1.5.2-2.9.5-4.4.2-.9.4-3.8.6-6.5.5-9.2,1-16.3,1.5-18.1.4-1.5.3-21.3,0-23-.3-1.2-1.3-6.9-1.8-9.9,0-.7-.2-1.5-.4-2.2-.2-.8-.4-1.6-.5-2.4-.2-1.2-.6-3-.9-4.1-.5-1.7-.7-2.7-1.8-7-.2-.8-.4-1.5-.7-2.2-.3-.6-.8-2.2-1.1-3.4s-.9-2.9-1.2-3.8-.6-2.1-.9-2.8c-.3-1.2-1.7-5.3-2.5-7.4-1.3-3.6-1.8-6.6-2.6-13.4-.2-1.7-.4-3.7-.6-4.4-.7-6.3-1.1-12.7-1.2-19.1,0-2.1-.1-6-.3-8.6-.3-5.5-.1-6.6,1.3-8.4,1.4-1.7,2-1.9,4.2-1.3,3.5.9,6.9,6.6,7.5,12.5.1,1.3.3,5,.4,8.1.2,6.7.5,13.9.7,14.4,0,.2.2,2.1.4,4.2.3,4.7,1.2,9.4,2.7,13.9.3,1,1.9,4.1,3.4,7,8.1,15.2,9.3,18.9,9,27.3,0,1.8-.3,6.3-.4,10s-.3,7.3-.4,7.8-.2,3.4-.3,6.5-.5,7.1-.7,9.1c-.7,5.8-.9,13-1,40.9,0,14.6-.2,27.9-.3,29.6-.3,9.7,0,19.5.9,29.1.1,1,.3,3.2.4,5.1,0,1.4.2,2.8.3,4.2.5,3.4.7,6.8.8,10.3,0,1.4,0,2.7,0,4.1.1,2.1.3,5.1.4,6.6.1,2.6.4,5.8,1.1,12.5.2,1.8.4,4.2.6,5.5.2,1.6.6,4.9,1,8.3h1.7c0-.2,0-.4,0-.6-.2-1.6-.4-3.5-.6-4.3Z"/>
        <path class="cls-1" d="M315.9,498.4c-.2-1.3-.4-3.7-.6-5.4s-.4-3.9-.5-4.8c-.4-3.1-1-11.1-1.3-16.7-.1-2.4,0-4.7.4-7.1.3-2,.5-3.7.6-3.8s.2-1,.4-2.1c.7-3.5,1.5-7,2.6-10.5,1-3.1,3.2-11.8,4-15.6.6-3.6,1-7.3,1.1-11,0-3,.3-6,.6-9,.1-.9.3-3,.4-4.7s.3-3.8.5-4.7.3-2.5.4-3.5c.3-5.9.3-11.7-.2-17.6-.3-3.3-.6-6.5-.7-7.1-.2-1.3-.3-2.5-.3-3.8,0-1.5-.2-3.6-.3-4.7-.5-5.1-.7-7.2-.8-9.9,0-1.6-.2-4.4-.3-6.2-.1-1.2-.1-2.3-.1-3.5,0,0,0-4.3-.3-9.5-.2-5.5-.3-11.2-.2-13.9,0-2.5.2-6.8.3-9.6,0-4.2.3-8.4.7-12.5.3-2.7.4-5.4.2-8.1-.2-5.3-.8-8.2-2.5-11.8-3.1-6.2-5.6-12.7-7.6-19.4-.7-2-1.4-4-1.6-4.5-.4-.9-.7-1.8-1-2.7-1.1-3.9-2.5-7.8-4.3-11.5-1.3-2.6-2.2-5.5-2.7-8.3-.3-2-.8-4.1-1.5-6-.2-.5-.5-.9-.9-1.3-.2-.2-.5-.4-.9-.3h0c-.4,0-.8,0-1.1.2-1.5.3-2,.6-4,2.2-1.2.8-2.2,1.8-3,3-.8,1.6-1.5,6.1-1.6,11.3,0,1.1-.1,2.1-.3,3.1-.2.6-.2,1.3,0,1.9.3,1.2.2,3.5-.3,9.7-.3,4.4-.5,7.6-.4,10.5.2,3.8,0,7.5-.8,11.2-.2.9-.4,2.7-.5,4,0,1.2-.3,2.5-.5,3.7-.3,1.4-.5,2.9-.6,4.4-.2,3.4-.8,6.7-1.2,7.4-.7,2.3-1.3,4.7-1.7,7.1-.5,2.8-1.1,5.6-1.9,8.3-.3,1.1-.5,2.2-.7,3.3-.9,3.5-1.9,7-3.2,10.5-.5,1.6-.8,3.2-1,4.8-.2,1.5-.5,3.1-.9,4.6-.2.7-.4,1.3-.4,2,0,.6-.2,1.2-.4,1.7-.3,1.1-.5,2.3-.6,3.5,0,1-.2,1.9-.4,2.9-.2.7-.3,1.5-.4,2.3,0,.9-.2,1.8-.5,2.6-.3,1-.4,2-.3,3,0,1.2-.1,2.3-.3,3.4-.2.7-.6,3.8-.9,7s-.7,6.5-.9,7.6-.3,4.4-.3,7.6c0,6.2-.5,12.5-1.3,18.6-.4,3-.6,5.7-1,18.8-.3,11.4-.3,16.1.2,17.9.8,3,1,7.1,1.1,17.7,0,9.3.1,10.9.6,13.9.3,1.9.6,4.8.7,6.5s.3,3.7.4,4.5c.1,1,.2,2,.3,3,0,.9.1,1.9.3,2.8.3,1.7.8,9.8,1.2,18.3h1.8c0-1.5-.1-2.6-.2-2.8-.1-.7-.5-5.6-.8-11.2,0-1.6-.3-3.7-.4-4.6-.3-1.7-.5-4.3-1.1-11.5-.2-2.3-.4-4.3-.5-4.5-.3-1-.8-12.9-.8-19,0-7,0-7.2-1-12.9-.4-2.3-.5-3.1-.3-9.1.2-8,.2-7.6.1-9.7,0-2.1.4-13.4.5-13.7,0-.1.3-1.9.5-4.1s.6-6.3.8-9.3c.6-6.2.5-5.9.3-10.4-.1-2,0-4.1.2-6.1.5-3.7.8-5.9,1.2-10,.2-1.9.4-3.8.6-4.2.2-1,.3-2,.4-3,0-1.3.4-3.3.6-4.6s.6-3.7.9-5.4.7-4.3,1-5.7c.9-4,1.3-5.9,1.6-8.3.7-3.7,1.8-7.3,3.1-10.8.5-1.4.9-2.7,1.2-4.1.1-.8.4-1.8.5-2.4s.4-1.8.6-2.8c.1-.8.3-1.7.6-2.5.1-.3.5-2.1.8-4s.8-4.2,1.1-5.1c1.3-4.8,1.8-7.1,1.9-9.4,0-1.3.3-3.2.5-4.2s.4-3.2.6-4.8.5-4.3.7-5.8c.4-2.5.5-6.8.4-14,0-.5.2-2.9.4-5.2s.4-6.2.5-8.6c0-5,.4-10,1.2-14.9.4-1.9.4-1.9,3.1-4.2,2.4-2.1,3.1-2.3,3.8-1.4.3.5.8,2.7,1.6,6.7.5,2.8,1.9,6.8,2.7,7.9,1.1,1.7,2,3.6,2.4,5.6.9,3.1,2,6.1,2.9,8.4,1.1,2.5,3,8.2,3.5,9.8.4,1.2.8,2.5,1.3,3.7.5,1.3,1.3,3.1,1.6,4s1.3,3,2.2,4.7c2.5,5.1,3.1,8.1,3,16.2,0,2.5,0,5-.4,7.6-.3,2.3-.4,4.7-.4,7.1,0,2.7-.1,7-.3,9.7s-.2,6.7-.1,9,.2,7.5.4,11.7c.3,10,.7,17.7.9,20.2.1,1.1.5,4.7.7,7.9.7,8.8.8,10,1.1,11.7.5,2.7.4,19.3-.1,21.6-.2.9-1,9.6-1.4,14.9-.2,2.9-.5,6.8-.6,8.7,0,1.6-.3,3.2-.6,4.7-.2.7-.4,1.5-.5,2.2-.8,4.4-1.9,8.7-3.3,13-.5,1.9-1.3,4.4-1.6,5.5-.7,2.4-1.9,8.5-2.2,11.3-.1,1-.4,2.6-.5,3.4-.2,1.5-.2,3,.4,12,.2,2.5.6,6.9.8,8.5.1.8.4,3.4.6,5.7s.5,4.8.6,5.5.3,2.8.5,4.6c0,.3,0,.5,0,.8h1.7c0-.3,0-.6,0-.8,0-1.3-.3-3.3-.5-4.6Z"/>
        <path class="cls-1" d="M84.8,478.4c-.2-2.5-.3-10-.2-30,.2-69,.2-73.7-.3-75.3-.5-2.1-.9-4.2-1.1-6.3-.2-1.2-.4-2.5-.7-3.7-.3-1-.7-3.3-1.1-5.1s-.7-3.7-.8-4.2c-1-4.5-1.7-7.5-2-8.3-.2-.6-.7-2.5-1.1-4.4-.8-4-1.9-8-3.1-11.9-2.2-6.6-3.7-11.2-4.4-13.9-.4-1.6-1-3.9-1.3-5.1s-.9-3.8-1.3-5.9c-1.6-8.1-3.6-14.9-5.6-19.5-1.5-3.9-2.8-7.9-3.8-12-.4-2.2-.9-4.3-1.6-6.5,0-.1-.5-1.1-.8-2.1-2.4-6.7-4.1-10-5.7-11-1.3-.6-2.8-.9-4.2-1h0c-.1,0-.3,0-.4,0-.9.2-4.3,3.5-4.9,4.8-1,2.3-1.7,4.8-2.1,7.3-.3,1.6-.7,3.4-.8,4-.3,1.4,0,12.5.4,16.2.2,1.6.4,4.3.6,6,.2,3.5.6,7,1.3,10.5.3,1.7.7,3.8.7,4.6.3,1.6.6,3.1,1.2,4.6.4,1.1.7,2.3,1,3.5,0,.3,0,.6.2.9.7,2,1.2,4.1,1.5,6.3,0,.8.3,2.1.5,2.9.5,4.3.8,8.6.8,12.9,0,4-.3,8.1-.8,12.1-.2.8-.3,1.6-.3,2.5-.2,2.3-.6,4.5-1.1,6.7-.3,1.2-.5,2.4-.6,3.6-.1,1.8-.6,3.5-1.4,5.2-.4,1-.7,2-.9,3-1,4-2.2,7.9-3.6,11.7-.3.8-.6,1.6-.8,2.4-.3,1.9-1,3.6-1.9,5.3-.3.3-.5.7-.5,1.1-.4,2.1-.9,4.1-1.6,6.1-.4,1-.8,2.3-.9,2.8-.2.7-.4,1.4-.7,2.1-.8,2-2.6,7.4-3.5,10.7-.4,1.2-.8,2.3-1.3,3.5-.5,1.2-.9,2.4-1.1,3.7-.2.9-.4,1.9-.7,2.8-.2.7-.4,1.5-.4,2.2-.4,4.2-.9,6.6-2.8,14.2-.3,1.2-.4,2.5,0,3.7.5,2.9.4,5.8-.2,8.6-.3,1.3-.4,2.6-.5,3.9,0,1.3-.2,2.5-.4,3.8-.4,4.2-.6,8.3-.6,12.5-.1,6.2-.3,11-.5,11.7-.2.9-.2,1.8,0,2.7.2,2.5.2,4.9-.2,7.4-.2,1.1-.1,2.1,0,3.2.2,1.6.3,3.3.3,4.9,0,1.1,0,2.1,0,3h1.7c0-2.5-.1-5-.4-7.6-.2-1.2-.3-2.4,0-3.7.2-2,.2-3.9.2-5.9,0-2.4,0-5.4.2-6.6s.3-5.2.3-8.7c-.1-7.2.4-14.3,1.6-21.4.5-2.6.5-5.3,0-7.9-.4-1.4-.3-2.9.2-4.2.5-1.5,1.1-3.8,1.9-6.7.3-1.5.6-3,.7-4.5,0-1.2.3-2.5.5-3.7.1-.5.4-1.8.6-2.8.3-1.4.7-2.7,1.3-4,.6-1.4,1.1-2.8,1.5-4.3.3-1.2.9-2.9,1.3-3.7s1.1-3,1.7-4.8,1.4-4.4,1.9-5.8c.3-1,.6-1.9.8-2.9.4-1.9,1-3.7,1.8-5.4.5-1.2.9-2.5,1.3-3.8.2-.8.8-2.6,1.3-4.1.9-2.5,2.2-6.9,3.4-11.2.3-.9.8-2.7,1.3-4,.6-1.9,1.1-3.9,1.4-5.9.3-1.9.7-4.4.9-5.4.2-.9.3-1.9.4-2.8,0-.6,0-1.2.2-1.7.1-.4.4-2.9.6-5.5.4-6.1.4-12.3,0-18.4-.4-3.4-1-6.7-1.8-10-.2-.6-.6-2-.8-3.1-.3-1.3-.7-2.6-1.1-3.9-.8-2.1-1.3-4.3-1.6-6.5-.2-1.2-.5-3.1-.7-4.1-.5-3.1-1.7-14.9-1.8-18.1,0-1.1-.1-3.8-.2-5.9-.2-1.8-.1-3.7.2-5.5.2-.9.6-2.8.9-4.3.5-2.8,1.5-5.5,2.9-8,.9-1.4,2.6-2.7,3.4-2.7.6,0,1.2.2,1.7.3,1.6.5,2.7,1.7,3.7,4,.4,1,1.2,2.9,1.7,4.1,1.4,3.2,2.5,6.5,3.1,10,1,4.7,2.5,9.2,4.3,13.6,2.3,5.8,4,11.8,5.1,17.9.5,2.9,1.6,7.5,2.7,11.3.3,1.2.8,2.7,1,3.4s.8,2.4,1.3,3.8c1.5,4.2,3.6,11.1,4.5,14.6,3,12.2,3.9,16.6,5,22.7.3,1.5.7,3.8,1,5.2.5,2.2,1.1,5.5,1.8,10,.2,1.1.2,9.3.2,26.3-.2,49.2-.1,75.3.2,77.4.2,1.1.3,4.4.3,7.3s.1,6.5.2,7.9c.1,1.4.3,5.8.4,9.9h1.5c-.2-3.9-.3-8.7-.5-14.9-.1-4-.4-8.8-.5-10.6Z"/>
        <path class="cls-1" d="M473.3,261.3c-.7-1.3-1.8-2.5-3-3.4-.4-.2-.8-.3-1.2-.3h0c-1.5,0-3.7,1.7-4.4,3.2-.2.5-.7,1.6-1,2.5-1.2,3.4-1.9,7-2.2,10.6-.3,3.2-.4,15-.1,19.2.1,1.9.2,4.3.2,5.4s.2,5.2.4,9.2.4,7.7.3,8.4c0,1,0,2.1,0,3.1.2,2.2.4,7.3.6,14.5,0,2.8.2,6,.3,7.1s.3,2.9.5,4c.2,1.7.7,3.4,2.3,7.7,1.1,3.1,2.7,4.5,5.3,4.6,3.2.1,3.3,0,4.6-1.1.5-.5,1-1.1,1.3-1.8.2-.8.5-1.6.9-2.3.8-1.9,1.2-5.4,1.1-10.8,0-1.8,0-4.1.1-5.2s.2-6.3.1-11.6c0-9.5-.2-13.4-.9-17-.2-1-.5-3.9-.7-6.5s-.4-4.8-.5-4.9c-.1-1-.2-2-.2-3,0-1.5-.4-5.2-.7-8.2s-.7-7.3-.9-9.6c-.7-7.9-1.4-12.2-2.2-14ZM476.4,301.8c.1,2,.3,4.2.5,5s.4,2.5.6,4c.3,2.2.4,4.8.4,14,0,6.2,0,11.9-.2,12.5-.1,1.4-.1,2.9,0,4.3.2,5.9-.8,10.8-2.9,13.2l-.7.8h-2.1c-2.1,0-2.1,0-2.9-.8-.7-.7-1.6-2.9-3.2-7.9-.6-2-1.1-6.6-1.2-12.3,0-3-.2-7.5-.3-9.9s-.2-4.6-.2-5,0-2.7-.1-5.2-.2-6.4-.4-8.6c-.7-11.3-.8-15.6-.7-23.2,0-7.9,0-8.6.6-11.6.4-2.7,1-5.3,2-7.7.8-2.1,1.1-2.5,2-3.2.4-.4.9-.7,1.4-.8h0c.4,0,.7.2,1.2.6,2.3,2.1,2.9,4.6,4.3,21.6.1,1.6.4,4,.6,5.4s.4,3.5.5,4.7.2,3.1.4,4.2.3,3.8.4,5.8Z"/>
        <path class="cls-1" d="M544.2,371.5c.2,1.4.5,3.8.9,5.2.3,1.6.8,3,1.6,4.4v-4.5s0,0,0,0c-1-4.9-1.2-8-1.1-16.8.3-32.9.3-33.8.8-36.3.1-.8.3-1.6.4-2.5v-50c0-.5-.1-.9-.2-1.2-.5-2.4-.7-4.9-.4-7.3.1-.5.3-.9.6-1.3v-2.5c-1,.7-1.8,1.7-2.1,2.9-.5,2.7-.5,5.4.1,8.1.3,1.4.5,2.7.6,4.1.2,4.1.4,11.7.4,15.6,0,2,0,4.1,0,4.6,0,3.9,0,7.7-.5,11.6-.2,2.3-.2,4.7,0,7,.3,4.2,0,8.5-.7,12.6-.3,1.7-.3,3.8-.2,9.6,0,4.1.1,7.5.2,7.6,0,1,0,2-.2,2.9-.4,3.6-.3,22.6,0,26.1Z"/>
        <path class="cls-1" d="M3.2,349.4c.3,1.9.8,4.9,1.1,6.7,1.1,6.4,2.1,8.3,5.7,11,1.8,1.4,2,1.4,3.3,1.4,1.4-.2,1.8-1.2,2.5-3.2.6-2.3.8-4.8.5-7.2-.7-2.8-1.2-5.7-1.4-8.6-.1-1.7-.4-4.7-.7-6.7-.9-7.1-1-8.9-.7-13.1.2-2.6.2-8,.1-15.8-.2-13.4.1-23.4.8-31.1.3-3.5,0-7.5-.6-8.2-.4-.5-1.1-.8-1.8-.8h0c-.7,0-1.4.5-1.9,1-1.2,1.3-3.6,8.3-4.2,12.2-.2,1.3-.5,3.1-.7,4-1.4,6.4-2.1,12.8-2,19.4,0,4.8-.3,18.8-.6,25.2-.3,4.6-.1,9.2.6,13.8ZM5.7,353.8c-.2-.8-.3-1.6-.5-2.4,0-.6-.4-2.3-.6-3.7-.6-2.9-.6-8.3-.2-17.2.1-3.1.3-9.8.3-15-.1-4.6,0-9.1.5-13.7,1-9.8,2.9-18.2,5.3-24.3.5-1.3,1-2,1.4-2h0s0,0,0,0c.3,0,.5.3.8.9.3.7.3,1.5.2,4.5,0,2-.2,4.6-.4,5.8-.5,4.4-.6,10.8-.5,25.9,0,9.4,0,16.6-.2,18.4-.2,1.8-.2,3.5,0,5.3.1,1.3.4,3.9.6,5.9s.4,3.6.4,3.7.1,1.4.2,2.9c0,1.3.2,2.6.4,3.9.1.6.3,1.7.4,2.4s.4,2,.6,2.9c.4,1.9.4,3.9,0,5.8-.6,3.7-1,3.8-3.7,1.5-2.1-1.8-3.3-3.4-3.7-4.7-.1-.5-.4-1.3-.6-1.8-.2-.8-.4-1.6-.5-2.4"/>
        <path class="cls-1" d="M303.2,501.7c-.3-2.5-.7-4.9-1.3-7.3-1.5-5.8-2.4-14-2.6-23.8,0-3.4,0-6.9,0-7.8s.3-3.1.4-5c.5-8,1.9-15.9,4.3-23.5,2.7-8.4,4.5-17.2,5.2-26,.1-1.7.4-3.8.5-4.5s.4-5.9.6-11.4.4-11.3.6-12.9c.3-3.6,0-22.6-.2-24.8-.2-1.6-.3-17.4-.3-41.8,0-9.3,0-13-.3-15.3-1.1-9.6-1.8-12.1-4.4-14.8-1.5-1.5-2.2-2-3.9-2.2-.2,0-.4,0-.6,0h0c-.5,0-.8.2-1.7.9-1.1.9-1.3,1.1-1.5,2.2-.3,1.8-.3,3.6,0,5.4.2,1.4.3,2.7.4,4.1,0,1.9.2,3.6.3,3.7,0,.5-.2,1-.4,1.5-.3.9-.5,1.9-.7,2.8-.3,1.7-.8,3.4-1.6,4.9-.5,1-.8,2.1-.9,3.3-.2,1.1-.4,2.2-.8,3.2-.4.9-.6,1.9-.7,2.9-.1.9-.3,1.9-.5,2.8-.2,1-.4,2-.5,2.9,0,1-.2,1.9-.5,2.8-.2.6-.5,2.5-.8,4-.2,1.3-.5,2.6-.9,3.9-.4,1.5-.7,3-.8,4.5-.2,1.9-.5,3.9-.6,4.6-.2.7-.3,1.5-.3,2.2-.2,3-.5,5.9-1.1,8.8-.2.7-.3,1.3-.4,2-.1,2-.4,3.9-.8,5.8-.2,1.1-.3,2.2-.4,3.3-.3,6.4-.6,9.9-.8,12.1-.4,3.8-.3,7.5.1,11.3.4,2.4.4,3.2.1,8.4-.2,3.1-.4,6.7-.5,7.8s-.3,3.2-.3,4.6-.2,3.7-.3,5.2c-.1,1-.1,1.9-.1,2.9,0,1,0,2-.1,3-.1,1.5-.3,4.1-.5,5.7-.2,2.3-.4,13.4-.5,23.8,0,1,.2,2.7.8,8.3.6,5.5,1.2,17.2,1.1,21.7-.2,6.4,0,12.8.5,19.1.1,1.9.2,3.8.1,5.7,0,.4,0,.7,0,1.1h1.7c0-.5,0-1,.1-1.5.2-2,.1-4.1-.1-6.1-.4-4.6-.7-11.6-.7-13.3,0-.6.1-2.4.3-4.1.2-1.6.2-3.2,0-4.8-.1-1-.2-3.1-.2-4.7-.1-5.5-.6-10.9-1.4-16.3-.2-1-.3-5.2-.2-12.1,0-11.2.5-20.6,1.6-35.3,1-12.6,1-15.6.6-18.3-.5-3.8-.5-7.6-.3-11.4.1-1.5.4-5.2.5-8.3.3-4.9.9-9.8,1.7-14.6.5-2.9.7-4.8,1-7.8.1-1.4.4-3.3.6-4.4s.4-2.7.5-3.8c.2-1.4.4-2.9.8-4.2.4-1.3.8-3.4,1-4.6s.5-2.8.7-3.4c.3-1.2.5-2.4.7-3.7.7-5.1,1-7,1.3-7.6.3-1,.6-2.1.8-3.2.3-1.5.7-3,1.4-4.4.5-1.2.9-2.4,1.2-3.6.2-1,.5-2,.9-2.9.6-1.3.6-3.7,0-9-.6-5.9-.5-6.8,1.2-7.8.6-.3.7-.3,1.7.2,2.2,1.2,3.6,3.2,4.4,6.5.2.9.7,3.5,1,5.8l.6,4.2v27.5c.1,15.1.2,27.8.3,28.1.5,2.2.6,23.2.1,26.9-.1.9-.2,3.1-.2,4.8,0,5.7-.5,15.3-.9,19-.3,2-.5,4.1-.5,4.7-.2,3-.7,5.9-1.3,8.8-.8,5.2-2.1,10.3-3.8,15.2-1.1,3.3-1.9,6.6-2.5,10-.8,4.1-1.4,8.2-1.7,12.4-.1,1.6-.3,4-.5,5.3-.4,4.1.2,17.9,1.2,24.5.1.9.3,2.4.5,3.3.3,2.2.8,4.3,1.5,6.5.2.9.4,1.7.5,2.6,0,.5.3,2.5.6,4.8h1.7c0-.8-.2-1.5-.2-2.1Z"/>
        <path class="cls-1" d="M171.7,496.3c.1-2.7.3-5.4.4-6s.2-5.7.4-11.4.3-12.2.4-14.4c.2-4.3,0-19.9-.5-24.2-.1-1.4-.3-4.6-.5-7.1s-.3-5.1-.3-5.7c-.9-7.8-1.6-28.3-1.1-33.2.2-2,.3-8.5.3-22.3,0-18.4,0-19.7-.5-23.2-1-7.5-1.2-8.9-1.3-10.6,0-.9-.2-2.6-.4-3.8-.6-5.8-.7-7.2-.9-12.3,0-3.6-.4-7.3-1-10.9-.2-.9-.6-3.2-.9-5.2-.6-3.4-.7-3.5-1.7-4.8-.6-.7-1.2-1.4-2-2-.7-.5-1.5-.8-2.4-.7h0c-1.9,0-2.9.7-4.1,2.9-1.2,2.3-2.5,4.5-4,6.6-.7.9-1.3,1.9-1.9,2.9-.6,1.1-1.7,2.7-2.3,3.6-1.1,1.7-2.1,3.5-3.1,5.3-1,1.9-2.1,3.8-3.3,5.7-1.7,2.3-2.9,5-3.5,7.9-.3,1.3-.6,2.8-.7,3.3s-.3,1.8-.4,2.8-.4,2.9-.6,4.1-.5,3.2-.6,4.5-.4,2.7-.5,3.2c-.2,1-.3,2-.3,2.9,0,1.1-.2,3.8-.4,6-.2,3-.3,6-.1,9,.2,6.2.2,19.2,0,20.8-.1.6-.3,6.7-.4,13.4-.2,12.5-.5,18-.9,21.1-.1,1-.4,5.6-.5,10.3-.2,7.5-.2,9,.1,12.7.2,2.3.5,4.6.6,5.2s.3,2.1.3,3.5c.2,2.9.4,6.1.9,11.1.2,1.8.5,4.7.6,6.4.3,3.5.3,4,.7,8.1.3,3.9.9,9.2,1.2,10.9.2,1.3.5,3.7,1.3,10.6,0,.1,0,.2,0,.4h1.9c-.1-1.2-.3-2.5-.4-3.1-.1-.8-.3-2.5-.5-3.9s-.4-3.3-.6-4.2c-.4-2.1-.9-6.6-1.3-11.1-.1-1.8-.4-5-.6-7.2s-.4-5.6-.6-7.4-.4-4.6-.6-6c-.2-1.4-.3-2.9-.3-4.4,0-1.2-.1-2.5-.3-3.7-1.1-6.3-1-18.3.3-34.3.2-2.7.4-7.2.4-10s.1-6.8.2-8.8c.6-17,.7-21.1.4-28-.2-4.4-.1-8.8.2-13.2.4-6.4.5-7.1,1-9.8.3-1.7.7-4.2,1.1-7.9.5-3.7,1.4-7.4,2.7-10.9.7-1.4,1.5-2.8,2.4-4.1.9-1.3,2.2-3.6,3-5.1s1.8-3.4,2.3-4.1l1.8-2.9c.5-.8,1.4-2.1,1.9-2.9,1.9-2.9,4.7-7.4,5.5-8.9s2.1-1.8,3.6-.7c2,1.5,2.4,2.6,3.7,11.1.7,3.9,1.1,7.8,1.2,11.8.2,4.9,1.2,16.8,1.5,17.2.2,1,.3,2,.4,3,.1,1.5.4,3.4.5,4.1.2,1.3.7,8.7.7,11,0,11.7-.3,35.3-.5,36.4-.2,4.8-.2,9.5,0,14.3,0,1,.2,4,.3,6.7s.3,6.2.5,7.9.4,5.1.6,7.5.3,5.3.5,6.5c.6,9.8.7,19.6.3,29.4,0,.6-.1,4.8-.2,9.3s-.2,10-.4,12c-.4,6.9-.7,13.1-.6,14.6h1.9c-.1-2.5-.1-5,0-7.6Z"/>
        <path class="cls-1" d="M399.1,502.5c0-2.4-.2-4.4-.3-4.5-.1-.7-.1-1.4-.1-2.1,0-1.1,0-3.2-.2-4.8-.3-4.2-.5-9.1-.6-16.7,0-3.7-.2-7.8-.3-9-.1-1.3-.2-6.6-.2-13,0-16.9,0-17.7-.1-25.5-.1-4.4-.3-8.3-.5-9.6-.7-4-2-7.9-4-11.6-.2-.4-1-1.7-1.6-2.9-2-3.6-4.3-7-6.9-10.1-.8-.9-1.6-1.9-2.3-3-.6-.9-2.6-3.5-4.3-5.7-3.6-4.5-4.4-5.7-6.1-10.4-1.3-3.5-2.1-7-2.5-10.7-.3-1.8-.6-3.6-.7-4.1-.2-.6-.3-4.5-.4-10.1,0-5.1-.2-11.9-.3-15.2s-.3-8-.4-10.5c0-3.3-.3-6.6-1-9.9-.6-2.1-1.6-4.1-2.8-5.9-1.1-1.2-2.5-1.9-4-2.2-.6,0-1.2-.1-1.8-.1h0c-2.2,0-4.5.4-6.6,1-3.1,1-3.9,1.5-5.8,3.5-2.1,2.2-2.6,3.3-2.7,7.1,0,2.3.1,4.7.7,7,.2,1,.6,3.6.9,5.7.2,1.4.4,2.8.7,4.1.2.8.3,1.6.3,2.4,0,1.2.3,3,.4,4,.3,4.8.3,9.6,0,14.4-.2,1.8-.3,3.8-.2,4.5s0,3.5.1,6.3.2,5.2.2,5.4c.2.9.2,1.9.3,2.8.1,2.6.4,5.3,1,9.4.6,4.2.8,8.4.9,12.6,0,2.7.2,6.6.4,8.6s.3,5.9.4,8.6c.2,8.2.3,10.5.6,12.5.1,1,.3,3.5.3,5.4,0,1.4.1,2.8.3,4.2.6,1.5.7,7.2.3,12.2-.2,3.4-1,6.8-2.2,10-.6,1.7-1,3.4-1.4,5.1-.1.8-.4,2.4-.7,3.5s-.7,3.7-.9,5.7c-.4,3.3-.6,5.5-1,12-.2,2.5-.2,5,0,7.6.1,1.2.2,2.4.2,3.5,0,.9,0,1.7.3,2.6.2,1.4.3,2.9.3,4.4,0,.9,0,1.9,0,2.8h1.7c-.1-1.4-.2-2.7-.3-3.8-.1-2.2-.3-5.5-.5-7.4-.6-9,0-18,1.7-26.8.4-1.7.8-3.7.9-4.4.1-.8.3-1.6.6-2.4,1.8-5,2-5.9,2.5-9.1,1.1-6.9,1-8.2-.2-18.5-.5-4.3-.8-8.5-.9-13.8,0-2.7-.2-7.3-.4-10.1s-.3-8.3-.5-12c0-4.6-.5-9.2-1.2-13.8-.2-1.3-.6-5.5-1.2-11.7-.3-5.5-.3-10.9,0-16.4.6-8.1.2-16.2-1.4-24.2-.3-1.4-.5-3.2-.6-4-.1-1.1-.4-2.2-.6-3.3-.4-1.7-.5-3.5-.4-5.2.1-4.4.6-5.3,3.2-7.6,2.3-2,8.7-3.4,12.1-2.8,1.2.2,2.5,1.6,3.6,3.7,1.2,2.2,1.7,4.1,2,7.7.3,3.4.8,17.7.9,29.3,0,8.4.1,9.9.5,11.9.2,1.3.7,3.9,1.1,5.8.5,4,1.6,7.9,3.2,11.6.7,2.2,1.9,4.3,3.5,6,.9,1,2,2.4,2.6,3.1s1.4,1.8,1.9,2.5,1.4,1.9,2,2.7,1.7,2.3,2.4,3.2c2.5,2.9,4.6,6.1,6.4,9.5.6,1.1,1.3,2.4,1.6,2.9.8,1.3,1.5,2.7,2,4.1,1,2.9,1.7,5.9,1.9,9,.2,2.9.6,15.9.6,18.4-.2,8.6-.2,24.4,0,26,.2,1.8.7,16.9.7,21.3,0,.9.1,2.4.2,3.3s.4,5.2.6,9.6c0,2.1.2,4,.3,5.5h1.6c0-.4,0-.9,0-1.4Z"/>
        <path class="cls-1" d="M71,489.3c0-.8,0-3.7.1-6.5.4-7.3.7-43,.4-43.5-.3-.4,0-40.8.3-44.4.4-4.1.4-8.1,0-12.2-.5-4.9-1.2-9.8-2.2-14.7-.2-1.5-.3-3-.3-4.5,0-3.3-.7-6.6-1.8-9.7-.3-.8-.7-2.3-.9-3.4-.3-1.4-.8-2.8-1.3-4.2-.4-1.3-1.1-2.4-2.1-3.3-.8-.8-1.4-1.2-1.8-1.2h0c-1.5,0-2.9.5-4.2,1.2-.6.6-1.2,4.5-1.3,7.3,0,1.2-.2,3.5-.4,5.1s-.3,3.9-.3,5.3c0,3.8-.5,7.6-1.2,11.4-.3,1.2-.6,2.9-.7,3.7-.8,3.3-1.8,6.5-2.9,9.7-.4,1.2-.7,2.3-.9,3.5-.7,3.5-1.7,6.8-2.9,10.1-.5,1.4-1.2,3.2-1.4,4s-.7,2.3-1.1,3.4-1,3-1.4,4.2-1.3,3.6-1.9,5.2c-2.9,6.9-4.6,12.8-7,23.8-.3,1.2-.5,2.3-.6,3.5,0,.6,0,1.1-.2,1.7-.6,3.5-.9,7.1-1,10.6,0,2.1-.1,5.1-.2,6.5,0,2.1,0,4.2,0,6.3.2,4.4.5,16.8.6,34.2,0,.5,0,1.1,0,1.5h1.4c0-2.8,0-6.5,0-11.2,0-13.6-.2-20.7-.4-22.8-.2-2.4-.2-4.7-.1-7.1,0-2.2.2-5.6.3-7.6,0-2.8.2-5.5.7-8.3.2-1.2.5-3.3.7-4.7.9-5.2,2-10.4,3.5-15.5,1-3.5,2.2-6.9,3.6-10.3.5-1.2,1.4-3.6,2-5.3s1.4-4.1,1.8-5.2.9-2.7,1.1-3.5c.2-.8.5-1.7.8-2.5,1.4-3.5,2.5-7.2,3.3-10.9.2-1.6.7-3.2,1.4-4.7,1-2.6,1.7-5.3,2.3-8,.3-1.3.6-3,.8-3.9.5-3,.9-6,1.1-9,.1-1.8.4-5.2.6-7.6q.4-4.9.3-6.4c0-1.9.2-3.8.8-5.6.7-1.1,3-.9,4.1.3.8.8,2.1,4.3,2.9,7.5.2.6.4,1.7.6,2.4,1,2.8,1.5,5.8,1.6,8.8,0,1.9.3,3.9.6,5.8.2.9.5,2.3.7,3.2.8,5,1.4,10.1,1.7,15.2,0,2,0,3.9-.1,5.9-.2,1.8-.5,11.6-.5,15.1.4,43.9.3,66.1-.1,73.9-.1,1.8-.2,4.1-.2,5.2,0,3.4.3,11.1.5,16.5h1.6c0-.6,0-1.1,0-1.7-.2-7.7-.3-11.2-.5-12.9Z"/>
        <path class="cls-1" d="M158.8,479c-.1-5.4,0-7.2.7-18.6.5-8,.8-19,.6-22.3-.1-1.6-.3-4.1-.3-5.7s-.2-3.9-.4-5.2c-.4-4-.9-22.6-1-36.5-.1-15.4-.3-21.5-.6-24.4-.1-1.2-.3-4.3-.4-7.1,0-2-.2-3.9-.5-5.9-.3-.8-.4-1-1.2-1-.1,0-.2,0-.3,0h0c-1.6,0-3.2.8-3.9,2.3-.7,1.6-2.4,20.2-2.4,25.9,0,1.3,0,2.7-.2,4-.1.9-.4,4.5-.6,7.9s-.5,7.9-.6,9.9-.3,5.3-.4,7.2c-.2,4.2-.4,6.7-.6,9-.1,2.1-.6,12.8-.6,13.6,0,.9.2,5.2.5,12.4.4,8,.4,9.6.5,18.9,0,4.2.2,8.3.3,9.3s.2,4.7.2,8.4c0,3.8.2,8.2.4,10.3.2,2,.5,4.8.6,6.2.1,1.4.3,2.8.6,4.1.1.5.3,1.3.4,2.2h1.7c-.1-.6-.2-1.1-.3-1.7-.3-1.5-.4-3.1-.5-4.6-.2-2.5-.3-4.7-.9-10.6-.1-1.4-.3-5.4-.3-9.1s-.1-8.5-.2-10.7-.3-8.5-.4-13.9-.3-11.4-.5-13.4-.2-5-.3-6.6c0-4.3,1.2-29.7,1.5-30.2,0-.1.2-2.5.3-5.2.3-6.1.6-11.2.9-13.7.1-1,.2-3,.2-4.5,0-3.9.6-12.5,1.3-17.9.8-6.5.8-6.6,1.4-7.1.3-.2.6-.4,1-.5.7,0,.8,1,1,7.2,0,2.5.2,4.6.3,4.7.1.2.4,7.3.6,13.5,0,1.6.2,8.7.2,15.9s.2,13.2.2,13.2,0,1.7.1,3.7c0,4.5.4,13.5.7,16.5.4,4.6.8,12.1.7,15.9,0,5.6-.6,16.7-1.2,24.2-.2,2.1-.2,7.1-.1,13.9.1,11.9.2,14.2.8,21h1.7c-.4-4.2-.6-8.5-.7-12.8,0-3.6-.2-9.1-.3-12.1Z"/>
        <path class="cls-1" d="M382.5,493.5c-.1-2.9-.2-16.4-.2-30.1s0-26-.3-28c-.1-1.7-.4-5.1-.5-7.7-.4-7.8-.7-9.3-4.9-21.7-1.4-4.2-3.2-8.4-5.2-12.3-1-2.1-2.7-3.9-4.8-4.9-1-.5-2-.9-3.2-.9h0c-.7,0-1.5.2-2.2.5-.7.3-1.3.7-1.9,1.2-.6.6-.6.7-.5,2.5.5,9.3.7,12,1,14.5.2,1.6.4,3.6.5,4.5,0,2.1.3,4.2.6,6.2.5,2.8.8,5.7.9,8.6.1,2.2.3,5.6.5,7.4.6,9.3.3,18.6-1,27.8-.1.8-.3,2.4-.4,3.4s-.4,2.8-.6,4c-.3,1.7-.4,3.2-.4,7.7,0,3,.1,6.7.3,8,.2,2.1.3,11.5.3,19.5h1.7c0-2,0-4.5,0-6.9,0-6.4-.1-12.8-.4-16.4-.4-5.9-.3-7.8.4-11.4.1-.6.3-2,.5-3.1s.4-2.9.6-4.1c1.2-8.1,1.8-22.1,1.2-27.4-.6-5.1-.9-8.5-.7-8.7,0-1.4-.1-2.9-.4-4.3-1.4-12.2-1.9-17-2.2-23.4-.4-6.8-.4-7.1,0-7.5,1.2-1.4,2.6-1.4,4.9-.3,2.2,1.1,3,2.1,4.8,5.9,1.9,3.7,3.5,7.5,4.6,11.5.6,1.7,1.2,3.3,1.4,3.7.3.7.5,1.4.7,2.1.2.8.7,2.8,1.2,4.6.6,2.2.9,4.5,1,6.7.2,4.9.3,6.5.7,10.6.2,2.5.3,7.4.4,17.1,0,7.5.1,15.2.3,17.2.1,1.9.2,3.8.1,5.7-.2,2.4-.5,8-.4,9.2,0,4.1.4,11,.6,13.2.2,2,.2,4,0,6h1.6c0-2.1,0-5-.3-10.4Z"/>
        <path class="cls-1" d="M494.7,503.8c-.1-1.9-.4-4.3-.5-5.3s-.2-3.1-.2-4.6-.1-3.5-.2-4.5-.4-4.5-.6-7.7-.4-6.1-.4-6.1c-.4-.6-.7-34.7-.3-36.9.1-.6.3-3.4.5-6.1s.5-5.8.6-6.8c.4-3.2.6-6.4.4-9.6-.6-5.8-.9-6.9-1.9-7.8-1.9-1.5-4.3-2.2-6.7-2.1h0c-3.4,0-6.8,1.1-8.4,3.3-.6.9-1.2,1.8-1.6,2.7l-.8,1.6v7c0,4.1.2,8.8.4,11.3.2,2.4.5,5.8.6,7.6s.3,3.6.3,4,.2,2.3.3,4.2c.3,6.7.5,10.3,1,13.9.5,3.6.8,6.6,1.2,11.9.3,3.6.3,7.3,0,10.9-.1.9-.2,10.5-.3,19.3h1.7c.1-8,.2-19.8.2-25.7.1-2.5,0-5-.4-7.5-.2-1.2-.4-2.4-.4-3.7,0-1.7-.2-3.4-.5-5-.3-1.8-.6-6.2-.8-9.8s-.5-7.9-.6-9.6c-.9-11.6-1.4-21.6-1.3-25,.1-2.7.2-3,.9-4.6,1.7-3.7,3.5-4.7,8.5-4.7,2.6,0,3,0,4.1.6.7.3,1.2.8,1.6,1.4.9,1.9,1.1,9.3.5,14.7-.2,1.7-.4,3.1-.4,3.2s-.2,1.5-.2,3.2-.3,3.9-.4,4.8c-.2,1.7-.3,4.4-.3,13.4,0,2.4,0,5.5,0,6.8,0,2.3,0,6,.4,16.4,0,2.2.2,4.6.4,5.3s.3,3,.3,5.1.2,4.4.4,5.2.3,3.3.4,5.7.2,5.2.4,6.4c.1,1,.2,2.4.3,3.3h1.8s0,0,0,0Z"/>
        <path class="cls-1" d="M520.7,429.5c.2-5.7,1.1-11.3,2.7-16.8.6-1.6,1.9-2.9,3.5-3.6,1.9-.5,2.8-.2,6.7,2.1.7.5,1.4.9,2.2,1.2.6.4,1.3.8,1.8,1.3,1.6,1.4,3.1,3,4.4,4.8,3.4,4.3,3.4,4.3,4.1,6.7.2.8.4,1.4.5,2.4v-5.8c-.5-.9-1.1-1.8-1.8-2.5-.7-.8-1.6-2-2.1-2.6-2.4-3.1-5-5.4-7.3-6.4-.8-.4-1.5-.8-2.3-1.3-1.4-1.1-3-1.7-4.7-1.8h0c-.2,0-.4,0-.6,0-1.6,0-3.2.8-4.3,2.1-1.6,1.7-2.3,3.8-3.4,10.5-.5,2.6-.7,5.2-.8,7.8-.1,2.3-.2,3.1-.9,9.7-.4,4-.7,24.8-.4,25,.2.3.3.6.2.9,0,1,.7,2,2.4,3.6,2.1,1.9,3.7,2.6,5.9,2.6,2.3,0,3.4-.5,5.4-2.6,1.6-1.7,3-3.6,3.9-5.8,1.2-3.1,1.6-8.7,1.2-15.6-.1-2.6-.4-6.8-.5-9.2-.3-4.9-.6-6.2-1.8-7.7-1-1.3-1.7-1.6-3.5-1.8-1.8-.2-3.1.2-3.2.9-.1.8.6,1.1,2.2.9,1.9-.2,2.7.2,3.4,1.4.8,1.4,1,2.8,1.3,7.5.7,11.9.5,18.9-.5,21.9-1.2,3.5-3.9,7.1-6.1,8.1-1.5.6-3.2.5-4.6-.3-1.5-.9-3.6-3.2-3.9-4.2-.2-2.4-.3-4.7-.2-7.1,0-3.4,0-7.7,0-9.5,0-1.8.2-5.4.4-8,.3-2.6.6-6.4.7-8.5Z"/>
        <path class="cls-1" d="M527.9,495.1v-4.5c0,0,.9-2.7.9-2.7.5-1.5,1.1-2.9,1.9-4.2,1.4-2.2,3-4.3,4.6-6.3.5-.6,1.5-1.8,2.2-2.7.8-1.1,1.8-2.1,2.7-3.1,2.9-2.9,5.5-7.1,6.5-10.5v-14c-.2,4-.5,7.6-.9,9.9-.2,2.1-.9,4.2-1.8,6.1-1.4,2.9-3.2,5.5-5.5,7.8-.8.8-1.5,1.6-2.2,2.4-.4.5-1.4,1.8-2.2,2.8-5,6-6.7,9.1-7.8,14.6-.3,1.6-.4,3.2-.1,4.8.1,1.6.3,4.1.4,5.6,0,1,0,1.9.1,2.7h1.7c-.1-3-.3-6.6-.3-8.7Z"/>
        <path class="cls-1" d="M57.9,481.8c0-8.9.5-21.1.9-23.7.1-.8.3-3.1.5-5.2s.3-3.8.4-3.9.2-1.9.4-4.1.4-5.7.6-7.9.4-5.9.5-8.1h0c.3-7.9.3-12.8,0-13.9-.2-.6-.3-1.3-.3-2-.1-1.7-.5-3.4-1.2-5-.3-.3-.7-.4-1-.4h0c-1,0-1.9.4-2.7,1-1.1,1-1.9,2.3-2.2,3.7-.1.7-.3,1.4-.5,2-.2.5-.6,2.2-.9,3.8s-.7,3.6-.9,4.5c-.7,3.2-1.2,6.4-1.5,9.7-.6,3.9-1.5,7.7-2.7,11.4-1.2,3.4-2,6.8-2.6,10.4-.1.7-.3,1.4-.5,2.1-.6,2.3-.9,4.7-1.1,7.1-.1,1.5-.4,3.7-.6,4.8-.3,2.2-.2,9,.4,14.6.1,1.2.2,2.4.1,3.6,0,.8,0,1.7,0,2.5.1.8.3,3,.4,4.8,0,1.7.2,3.5.5,5.2.2,1.6.4,3.3.4,5h1.7c-.1-2.2-.4-4.4-.8-6.6-.1-.2-.4-6.3-.6-12.5,0-1.5-.2-3.5-.3-4.5-.5-4.6-.5-9.2,0-13.8.3-2.2.5-4.4.5-5,0-1.9,3.3-16.4,4-17.5.5-.9,2.5-10.1,2.8-13.2.2-2,.7-5.1,1.6-9.7,1.9-9.6,2.6-11.4,4.6-11.4s.7.2,1.2,2.4c1.2,6.3,1.1,15-.8,36.2-.1,1.5-.3,3.5-.4,4.5s-.2,2.8-.3,4c-.8,8.1-1,13.5-1,26.7,0,8.1,0,14.5.2,15.9.1,1.1.3,2.8.3,4.3h1.4c-.4-6.1-.6-13.3-.6-22.1Z"/>
        <path class="cls-1" d="M163.4,415.3c0,.1.1.2.2.2,0,0,0,0,0,0,.1,0,.2,0,.1-.2,0-.1-.2-.2-.3-.2,0,0,0,.1,0,.2Z"/>
        <polygon class="cls-1" points="163.5 415 163.5 415 163.5 415 163.5 415"/>
      </g>
    </g>
  </g>
</svg>